<svg width="504" height="538" viewBox="0 0 504 538" fill="none" xmlns="http://www.w3.org/2000/svg">
<rect x="18" y="43" width="105" height="20" rx="10" fill="#F5F5F5" fill-opacity="0.5"/>
<path d="M168.94 64.82C167.74 63 166.81 60.9 166.15 58.52C165.51 56.12 165.19 53.54 165.19 50.78C165.19 48.02 165.51 45.44 166.15 43.04C166.81 40.62 167.74 38.52 168.94 36.74H173.41C172.15 39 171.23 41.28 170.65 43.58C170.07 45.86 169.78 48.26 169.78 50.78C169.78 53.3 170.07 55.71 170.65 58.01C171.23 60.29 172.15 62.56 173.41 64.82H168.94ZM186.263 59.36C184.643 59.36 183.133 59.1 181.733 58.58C180.353 58.04 179.153 57.28 178.133 56.3C177.113 55.32 176.313 54.17 175.733 52.85C175.173 51.53 174.893 50.08 174.893 48.5C174.893 46.92 175.173 45.47 175.733 44.15C176.313 42.83 177.113 41.68 178.133 40.7C179.173 39.72 180.383 38.97 181.763 38.45C183.143 37.91 184.653 37.64 186.293 37.64C188.113 37.64 189.753 37.96 191.213 38.6C192.693 39.22 193.933 40.14 194.933 41.36L191.813 44.24C191.093 43.42 190.293 42.81 189.413 42.41C188.533 41.99 187.573 41.78 186.533 41.78C185.553 41.78 184.653 41.94 183.833 42.26C183.013 42.58 182.303 43.04 181.703 43.64C181.103 44.24 180.633 44.95 180.293 45.77C179.973 46.59 179.813 47.5 179.813 48.5C179.813 49.5 179.973 50.41 180.293 51.23C180.633 52.05 181.103 52.76 181.703 53.36C182.303 53.96 183.013 54.42 183.833 54.74C184.653 55.06 185.553 55.22 186.533 55.22C187.573 55.22 188.533 55.02 189.413 54.62C190.293 54.2 191.093 53.57 191.813 52.73L194.933 55.61C193.933 56.83 192.693 57.76 191.213 58.4C189.753 59.04 188.103 59.36 186.263 59.36ZM207.697 59V55.85L207.397 55.16V49.52C207.397 48.52 207.087 47.74 206.467 47.18C205.867 46.62 204.937 46.34 203.677 46.34C202.817 46.34 201.967 46.48 201.127 46.76C200.307 47.02 199.607 47.38 199.027 47.84L197.347 44.57C198.227 43.95 199.287 43.47 200.527 43.13C201.767 42.79 203.027 42.62 204.307 42.62C206.767 42.62 208.677 43.2 210.037 44.36C211.397 45.52 212.077 47.33 212.077 49.79V59H207.697ZM202.777 59.24C201.517 59.24 200.437 59.03 199.537 58.61C198.637 58.17 197.947 57.58 197.467 56.84C196.987 56.1 196.747 55.27 196.747 54.35C196.747 53.39 196.977 52.55 197.437 51.83C197.917 51.11 198.667 50.55 199.687 50.15C200.707 49.73 202.037 49.52 203.677 49.52H207.967V52.25H204.187C203.087 52.25 202.327 52.43 201.907 52.79C201.507 53.15 201.307 53.6 201.307 54.14C201.307 54.74 201.537 55.22 201.997 55.58C202.477 55.92 203.127 56.09 203.947 56.09C204.727 56.09 205.427 55.91 206.047 55.55C206.667 55.17 207.117 54.62 207.397 53.9L208.117 56.06C207.777 57.1 207.157 57.89 206.257 58.43C205.357 58.97 204.197 59.24 202.777 59.24ZM226.122 42.62C227.402 42.62 228.542 42.88 229.542 43.4C230.562 43.9 231.362 44.68 231.942 45.74C232.522 46.78 232.812 48.12 232.812 49.76V59H228.132V50.48C228.132 49.18 227.842 48.22 227.262 47.6C226.702 46.98 225.902 46.67 224.862 46.67C224.122 46.67 223.452 46.83 222.852 47.15C222.272 47.45 221.812 47.92 221.472 48.56C221.152 49.2 220.992 50.02 220.992 51.02V59H216.312V42.86H220.782V47.33L219.942 45.98C220.522 44.9 221.352 44.07 222.432 43.49C223.512 42.91 224.742 42.62 226.122 42.62ZM243.655 59.24C241.755 59.24 240.275 58.76 239.215 57.8C238.155 56.82 237.625 55.37 237.625 53.45V39.29H242.305V53.39C242.305 54.07 242.485 54.6 242.845 54.98C243.205 55.34 243.695 55.52 244.315 55.52C245.055 55.52 245.685 55.32 246.205 54.92L247.465 58.22C246.985 58.56 246.405 58.82 245.725 59C245.065 59.16 244.375 59.24 243.655 59.24ZM235.135 46.82V43.22H246.325V46.82H235.135ZM250.092 59V42.86H254.772V59H250.092ZM252.432 40.61C251.572 40.61 250.872 40.36 250.332 39.86C249.792 39.36 249.522 38.74 249.522 38C249.522 37.26 249.792 36.64 250.332 36.14C250.872 35.64 251.572 35.39 252.432 35.39C253.292 35.39 253.992 35.63 254.532 36.11C255.072 36.57 255.342 37.17 255.342 37.91C255.342 38.69 255.072 39.34 254.532 39.86C254.012 40.36 253.312 40.61 252.432 40.61ZM266.045 59.24C264.525 59.24 263.155 58.9 261.935 58.22C260.715 57.52 259.745 56.55 259.025 55.31C258.325 54.07 257.975 52.61 257.975 50.93C257.975 49.23 258.325 47.76 259.025 46.52C259.745 45.28 260.715 44.32 261.935 43.64C263.155 42.96 264.525 42.62 266.045 42.62C267.405 42.62 268.595 42.92 269.615 43.52C270.635 44.12 271.425 45.03 271.985 46.25C272.545 47.47 272.825 49.03 272.825 50.93C272.825 52.81 272.555 54.37 272.015 55.61C271.475 56.83 270.695 57.74 269.675 58.34C268.675 58.94 267.465 59.24 266.045 59.24ZM266.855 55.4C267.615 55.4 268.305 55.22 268.925 54.86C269.545 54.5 270.035 53.99 270.395 53.33C270.775 52.65 270.965 51.85 270.965 50.93C270.965 49.99 270.775 49.19 270.395 48.53C270.035 47.87 269.545 47.36 268.925 47C268.305 46.64 267.615 46.46 266.855 46.46C266.075 46.46 265.375 46.64 264.755 47C264.135 47.36 263.635 47.87 263.255 48.53C262.895 49.19 262.715 49.99 262.715 50.93C262.715 51.85 262.895 52.65 263.255 53.33C263.635 53.99 264.135 54.5 264.755 54.86C265.375 55.22 266.075 55.4 266.855 55.4ZM271.085 59V55.7L271.175 50.9L270.875 46.13V36.74H275.555V59H271.085ZM289.787 59V55.85L289.487 55.16V49.52C289.487 48.52 289.177 47.74 288.557 47.18C287.957 46.62 287.027 46.34 285.767 46.34C284.907 46.34 284.057 46.48 283.217 46.76C282.397 47.02 281.697 47.38 281.117 47.84L279.437 44.57C280.317 43.95 281.377 43.47 282.617 43.13C283.857 42.79 285.117 42.62 286.397 42.62C288.857 42.62 290.767 43.2 292.127 44.36C293.487 45.52 294.167 47.33 294.167 49.79V59H289.787ZM284.867 59.24C283.607 59.24 282.527 59.03 281.627 58.61C280.727 58.17 280.037 57.58 279.557 56.84C279.077 56.1 278.837 55.27 278.837 54.35C278.837 53.39 279.067 52.55 279.527 51.83C280.007 51.11 280.757 50.55 281.777 50.15C282.797 49.73 284.127 49.52 285.767 49.52H290.057V52.25H286.277C285.177 52.25 284.417 52.43 283.997 52.79C283.597 53.15 283.397 53.6 283.397 54.14C283.397 54.74 283.627 55.22 284.087 55.58C284.567 55.92 285.217 56.09 286.037 56.09C286.817 56.09 287.517 55.91 288.137 55.55C288.757 55.17 289.207 54.62 289.487 53.9L290.207 56.06C289.867 57.1 289.247 57.89 288.347 58.43C287.447 58.97 286.287 59.24 284.867 59.24ZM305.449 59.24C303.929 59.24 302.559 58.9 301.339 58.22C300.119 57.52 299.149 56.55 298.429 55.31C297.729 54.07 297.379 52.61 297.379 50.93C297.379 49.23 297.729 47.76 298.429 46.52C299.149 45.28 300.119 44.32 301.339 43.64C302.559 42.96 303.929 42.62 305.449 42.62C306.809 42.62 307.999 42.92 309.019 43.52C310.039 44.12 310.829 45.03 311.389 46.25C311.949 47.47 312.229 49.03 312.229 50.93C312.229 52.81 311.959 54.37 311.419 55.61C310.879 56.83 310.099 57.74 309.079 58.34C308.079 58.94 306.869 59.24 305.449 59.24ZM306.259 55.4C307.019 55.4 307.709 55.22 308.329 54.86C308.949 54.5 309.439 53.99 309.799 53.33C310.179 52.65 310.369 51.85 310.369 50.93C310.369 49.99 310.179 49.19 309.799 48.53C309.439 47.87 308.949 47.36 308.329 47C307.709 46.64 307.019 46.46 306.259 46.46C305.479 46.46 304.779 46.64 304.159 47C303.539 47.36 303.039 47.87 302.659 48.53C302.299 49.19 302.119 49.99 302.119 50.93C302.119 51.85 302.299 52.65 302.659 53.33C303.039 53.99 303.539 54.5 304.159 54.86C304.779 55.22 305.479 55.4 306.259 55.4ZM310.489 59V55.7L310.579 50.9L310.279 46.13V36.74H314.959V59H310.489ZM334.717 59.24C333.197 59.24 331.827 58.9 330.607 58.22C329.387 57.52 328.417 56.55 327.697 55.31C326.997 54.07 326.647 52.61 326.647 50.93C326.647 49.23 326.997 47.76 327.697 46.52C328.417 45.28 329.387 44.32 330.607 43.64C331.827 42.96 333.197 42.62 334.717 42.62C336.077 42.62 337.267 42.92 338.287 43.52C339.307 44.12 340.097 45.03 340.657 46.25C341.217 47.47 341.497 49.03 341.497 50.93C341.497 52.81 341.227 54.37 340.687 55.61C340.147 56.83 339.367 57.74 338.347 58.34C337.347 58.94 336.137 59.24 334.717 59.24ZM335.527 55.4C336.287 55.4 336.977 55.22 337.597 54.86C338.217 54.5 338.707 53.99 339.067 53.33C339.447 52.65 339.637 51.85 339.637 50.93C339.637 49.99 339.447 49.19 339.067 48.53C338.707 47.87 338.217 47.36 337.597 47C336.977 46.64 336.287 46.46 335.527 46.46C334.747 46.46 334.047 46.64 333.427 47C332.807 47.36 332.307 47.87 331.927 48.53C331.567 49.19 331.387 49.99 331.387 50.93C331.387 51.85 331.567 52.65 331.927 53.33C332.307 53.99 332.807 54.5 333.427 54.86C334.047 55.22 334.747 55.4 335.527 55.4ZM339.757 59V55.7L339.847 50.9L339.547 46.13V36.74H344.227V59H339.757ZM356.568 59.24C354.728 59.24 353.108 58.88 351.708 58.16C350.328 57.44 349.258 56.46 348.498 55.22C347.738 53.96 347.358 52.53 347.358 50.93C347.358 49.31 347.728 47.88 348.468 46.64C349.228 45.38 350.258 44.4 351.558 43.7C352.858 42.98 354.328 42.62 355.968 42.62C357.548 42.62 358.968 42.96 360.228 43.64C361.508 44.3 362.518 45.26 363.258 46.52C363.998 47.76 364.368 49.25 364.368 50.99C364.368 51.17 364.358 51.38 364.338 51.62C364.318 51.84 364.298 52.05 364.278 52.25H351.168V49.52H361.818L360.018 50.33C360.018 49.49 359.848 48.76 359.508 48.14C359.168 47.52 358.698 47.04 358.098 46.7C357.498 46.34 356.798 46.16 355.998 46.16C355.198 46.16 354.488 46.34 353.868 46.7C353.268 47.04 352.798 47.53 352.458 48.17C352.118 48.79 351.948 49.53 351.948 50.39V51.11C351.948 51.99 352.138 52.77 352.518 53.45C352.918 54.11 353.468 54.62 354.168 54.98C354.888 55.32 355.728 55.49 356.688 55.49C357.548 55.49 358.298 55.36 358.938 55.1C359.598 54.84 360.198 54.45 360.738 53.93L363.228 56.63C362.488 57.47 361.558 58.12 360.438 58.58C359.318 59.02 358.028 59.24 356.568 59.24ZM383.78 59.24C382.04 59.24 380.49 58.89 379.13 58.19C377.77 57.47 376.7 56.48 375.92 55.22C375.16 53.96 374.78 52.53 374.78 50.93C374.78 49.31 375.16 47.88 375.92 46.64C376.7 45.38 377.77 44.4 379.13 43.7C380.49 42.98 382.04 42.62 383.78 42.62C385.48 42.62 386.96 42.98 388.22 43.7C389.48 44.4 390.41 45.41 391.01 46.73L387.38 48.68C386.96 47.92 386.43 47.36 385.79 47C385.17 46.64 384.49 46.46 383.75 46.46C382.95 46.46 382.23 46.64 381.59 47C380.95 47.36 380.44 47.87 380.06 48.53C379.7 49.19 379.52 49.99 379.52 50.93C379.52 51.87 379.7 52.67 380.06 53.33C380.44 53.99 380.95 54.5 381.59 54.86C382.23 55.22 382.95 55.4 383.75 55.4C384.49 55.4 385.17 55.23 385.79 54.89C386.43 54.53 386.96 53.96 387.38 53.18L391.01 55.16C390.41 56.46 389.48 57.47 388.22 58.19C386.96 58.89 385.48 59.24 383.78 59.24ZM401.18 59.24C399.46 59.24 397.93 58.88 396.59 58.16C395.27 57.44 394.22 56.46 393.44 55.22C392.68 53.96 392.3 52.53 392.3 50.93C392.3 49.31 392.68 47.88 393.44 46.64C394.22 45.38 395.27 44.4 396.59 43.7C397.93 42.98 399.46 42.62 401.18 42.62C402.88 42.62 404.4 42.98 405.74 43.7C407.08 44.4 408.13 45.37 408.89 46.61C409.65 47.85 410.03 49.29 410.03 50.93C410.03 52.53 409.65 53.96 408.89 55.22C408.13 56.46 407.08 57.44 405.74 58.16C404.4 58.88 402.88 59.24 401.18 59.24ZM401.18 55.4C401.96 55.4 402.66 55.22 403.28 54.86C403.9 54.5 404.39 53.99 404.75 53.33C405.11 52.65 405.29 51.85 405.29 50.93C405.29 49.99 405.11 49.19 404.75 48.53C404.39 47.87 403.9 47.36 403.28 47C402.66 46.64 401.96 46.46 401.18 46.46C400.4 46.46 399.7 46.64 399.08 47C398.46 47.36 397.96 47.87 397.58 48.53C397.22 49.19 397.04 49.99 397.04 50.93C397.04 51.85 397.22 52.65 397.58 53.33C397.96 53.99 398.46 54.5 399.08 54.86C399.7 55.22 400.4 55.4 401.18 55.4ZM422.698 59.24C421.338 59.24 420.148 58.94 419.128 58.34C418.108 57.74 417.308 56.83 416.728 55.61C416.168 54.37 415.888 52.81 415.888 50.93C415.888 49.03 416.158 47.47 416.698 46.25C417.238 45.03 418.018 44.12 419.038 43.52C420.058 42.92 421.278 42.62 422.698 42.62C424.218 42.62 425.578 42.97 426.778 43.67C427.998 44.35 428.958 45.31 429.658 46.55C430.378 47.79 430.738 49.25 430.738 50.93C430.738 52.63 430.378 54.1 429.658 55.34C428.958 56.58 427.998 57.54 426.778 58.22C425.578 58.9 424.218 59.24 422.698 59.24ZM413.158 64.82V42.86H417.628V46.16L417.538 50.96L417.838 55.73V64.82H413.158ZM421.888 55.4C422.668 55.4 423.358 55.22 423.958 54.86C424.578 54.5 425.068 53.99 425.428 53.33C425.808 52.65 425.998 51.85 425.998 50.93C425.998 49.99 425.808 49.19 425.428 48.53C425.068 47.87 424.578 47.36 423.958 47C423.358 46.64 422.668 46.46 421.888 46.46C421.108 46.46 420.408 46.64 419.788 47C419.168 47.36 418.678 47.87 418.318 48.53C417.958 49.19 417.778 49.99 417.778 50.93C417.778 51.85 417.958 52.65 418.318 53.33C418.678 53.99 419.168 54.5 419.788 54.86C420.408 55.22 421.108 55.4 421.888 55.4ZM433.871 59V42.86H438.551V59H433.871ZM436.211 40.61C435.351 40.61 434.651 40.36 434.111 39.86C433.571 39.36 433.301 38.74 433.301 38C433.301 37.26 433.571 36.64 434.111 36.14C434.651 35.64 435.351 35.39 436.211 35.39C437.071 35.39 437.771 35.63 438.311 36.11C438.851 36.57 439.121 37.17 439.121 37.91C439.121 38.69 438.851 39.34 438.311 39.86C437.791 40.36 437.091 40.61 436.211 40.61ZM452.794 59V55.85L452.494 55.16V49.52C452.494 48.52 452.184 47.74 451.564 47.18C450.964 46.62 450.034 46.34 448.774 46.34C447.914 46.34 447.064 46.48 446.224 46.76C445.404 47.02 444.704 47.38 444.124 47.84L442.444 44.57C443.324 43.95 444.384 43.47 445.624 43.13C446.864 42.79 448.124 42.62 449.404 42.62C451.864 42.62 453.774 43.2 455.134 44.36C456.494 45.52 457.174 47.33 457.174 49.79V59H452.794ZM447.874 59.24C446.614 59.24 445.534 59.03 444.634 58.61C443.734 58.17 443.044 57.58 442.564 56.84C442.084 56.1 441.844 55.27 441.844 54.35C441.844 53.39 442.074 52.55 442.534 51.83C443.014 51.11 443.764 50.55 444.784 50.15C445.804 49.73 447.134 49.52 448.774 49.52H453.064V52.25H449.284C448.184 52.25 447.424 52.43 447.004 52.79C446.604 53.15 446.404 53.6 446.404 54.14C446.404 54.74 446.634 55.22 447.094 55.58C447.574 55.92 448.224 56.09 449.044 56.09C449.824 56.09 450.524 55.91 451.144 55.55C451.764 55.17 452.214 54.62 452.494 53.9L453.214 56.06C452.874 57.1 452.254 57.89 451.354 58.43C450.454 58.97 449.294 59.24 447.874 59.24ZM466.84 59.24C465.46 59.24 464.13 59.08 462.85 58.76C461.59 58.42 460.59 58 459.85 57.5L461.41 54.14C462.15 54.6 463.02 54.98 464.02 55.28C465.04 55.56 466.04 55.7 467.02 55.7C468.1 55.7 468.86 55.57 469.3 55.31C469.76 55.05 469.99 54.69 469.99 54.23C469.99 53.85 469.81 53.57 469.45 53.39C469.11 53.19 468.65 53.04 468.07 52.94C467.49 52.84 466.85 52.74 466.15 52.64C465.47 52.54 464.78 52.41 464.08 52.25C463.38 52.07 462.74 51.81 462.16 51.47C461.58 51.13 461.11 50.67 460.75 50.09C460.41 49.51 460.24 48.76 460.24 47.84C460.24 46.82 460.53 45.92 461.11 45.14C461.71 44.36 462.57 43.75 463.69 43.31C464.81 42.85 466.15 42.62 467.71 42.62C468.81 42.62 469.93 42.74 471.07 42.98C472.21 43.22 473.16 43.57 473.92 44.03L472.36 47.36C471.58 46.9 470.79 46.59 469.99 46.43C469.21 46.25 468.45 46.16 467.71 46.16C466.67 46.16 465.91 46.3 465.43 46.58C464.95 46.86 464.71 47.22 464.71 47.66C464.71 48.06 464.88 48.36 465.22 48.56C465.58 48.76 466.05 48.92 466.63 49.04C467.21 49.16 467.84 49.27 468.52 49.37C469.22 49.45 469.92 49.58 470.62 49.76C471.32 49.94 471.95 50.2 472.51 50.54C473.09 50.86 473.56 51.31 473.92 51.89C474.28 52.45 474.46 53.19 474.46 54.11C474.46 55.11 474.16 56 473.56 56.78C472.96 57.54 472.09 58.14 470.95 58.58C469.83 59.02 468.46 59.24 466.84 59.24ZM479.958 64.82H475.488C476.788 62.56 477.718 60.29 478.278 58.01C478.858 55.71 479.147 53.3 479.147 50.78C479.147 48.26 478.858 45.86 478.278 43.58C477.718 41.28 476.788 39 475.488 36.74H479.958C481.198 38.52 482.138 40.62 482.778 43.04C483.418 45.44 483.738 48.02 483.738 50.78C483.738 53.54 483.418 56.12 482.778 58.52C482.138 60.9 481.198 63 479.958 64.82Z" fill="white"/>
<path d="M168.94 136.82C167.74 135 166.81 132.9 166.15 130.52C165.51 128.12 165.19 125.54 165.19 122.78C165.19 120.02 165.51 117.44 166.15 115.04C166.81 112.62 167.74 110.52 168.94 108.74H173.41C172.15 111 171.23 113.28 170.65 115.58C170.07 117.86 169.78 120.26 169.78 122.78C169.78 125.3 170.07 127.71 170.65 130.01C171.23 132.29 172.15 134.56 173.41 136.82H168.94ZM173.453 131L182.813 110H187.613L197.003 131H191.903L184.223 112.46H186.143L178.433 131H173.453ZM178.133 126.5L179.423 122.81H190.223L191.543 126.5H178.133ZM208.661 114.62C209.941 114.62 211.081 114.88 212.081 115.4C213.101 115.9 213.901 116.68 214.481 117.74C215.061 118.78 215.351 120.12 215.351 121.76V131H210.671V122.48C210.671 121.18 210.381 120.22 209.801 119.6C209.241 118.98 208.441 118.67 207.401 118.67C206.661 118.67 205.991 118.83 205.391 119.15C204.811 119.45 204.351 119.92 204.011 120.56C203.691 121.2 203.531 122.02 203.531 123.02V131H198.851V114.86H203.321V119.33L202.481 117.98C203.061 116.9 203.891 116.07 204.971 115.49C206.051 114.91 207.281 114.62 208.661 114.62ZM219.594 131V114.86H224.274V131H219.594ZM221.934 112.61C221.074 112.61 220.374 112.36 219.834 111.86C219.294 111.36 219.024 110.74 219.024 110C219.024 109.26 219.294 108.64 219.834 108.14C220.374 107.64 221.074 107.39 221.934 107.39C222.794 107.39 223.494 107.63 224.034 108.11C224.574 108.57 224.844 109.17 224.844 109.91C224.844 110.69 224.574 111.34 224.034 111.86C223.514 112.36 222.814 112.61 221.934 112.61ZM228.617 131V108.74H233.297V131H228.617ZM237.64 131V108.74H242.32V131H237.64ZM256.564 131V127.85L256.264 127.16V121.52C256.264 120.52 255.954 119.74 255.334 119.18C254.734 118.62 253.804 118.34 252.544 118.34C251.684 118.34 250.834 118.48 249.994 118.76C249.174 119.02 248.474 119.38 247.894 119.84L246.214 116.57C247.094 115.95 248.154 115.47 249.394 115.13C250.634 114.79 251.894 114.62 253.174 114.62C255.634 114.62 257.544 115.2 258.904 116.36C260.264 117.52 260.944 119.33 260.944 121.79V131H256.564ZM251.644 131.24C250.384 131.24 249.304 131.03 248.404 130.61C247.504 130.17 246.814 129.58 246.334 128.84C245.854 128.1 245.614 127.27 245.614 126.35C245.614 125.39 245.844 124.55 246.304 123.83C246.784 123.11 247.534 122.55 248.554 122.15C249.574 121.73 250.904 121.52 252.544 121.52H256.834V124.25H253.054C251.954 124.25 251.194 124.43 250.774 124.79C250.374 125.15 250.174 125.6 250.174 126.14C250.174 126.74 250.404 127.22 250.864 127.58C251.344 127.92 251.994 128.09 252.814 128.09C253.594 128.09 254.294 127.91 254.914 127.55C255.534 127.17 255.984 126.62 256.264 125.9L256.984 128.06C256.644 129.1 256.024 129.89 255.124 130.43C254.224 130.97 253.064 131.24 251.644 131.24ZM272.227 131.24C270.707 131.24 269.337 130.9 268.117 130.22C266.897 129.52 265.927 128.55 265.207 127.31C264.507 126.07 264.157 124.61 264.157 122.93C264.157 121.23 264.507 119.76 265.207 118.52C265.927 117.28 266.897 116.32 268.117 115.64C269.337 114.96 270.707 114.62 272.227 114.62C273.587 114.62 274.777 114.92 275.797 115.52C276.817 116.12 277.607 117.03 278.167 118.25C278.727 119.47 279.007 121.03 279.007 122.93C279.007 124.81 278.737 126.37 278.197 127.61C277.657 128.83 276.877 129.74 275.857 130.34C274.857 130.94 273.647 131.24 272.227 131.24ZM273.037 127.4C273.797 127.4 274.487 127.22 275.107 126.86C275.727 126.5 276.217 125.99 276.577 125.33C276.957 124.65 277.147 123.85 277.147 122.93C277.147 121.99 276.957 121.19 276.577 120.53C276.217 119.87 275.727 119.36 275.107 119C274.487 118.64 273.797 118.46 273.037 118.46C272.257 118.46 271.557 118.64 270.937 119C270.317 119.36 269.817 119.87 269.437 120.53C269.077 121.19 268.897 121.99 268.897 122.93C268.897 123.85 269.077 124.65 269.437 125.33C269.817 125.99 270.317 126.5 270.937 126.86C271.557 127.22 272.257 127.4 273.037 127.4ZM277.267 131V127.7L277.357 122.9L277.057 118.13V108.74H281.737V131H277.267ZM293.748 131.24C292.028 131.24 290.498 130.88 289.158 130.16C287.838 129.44 286.788 128.46 286.008 127.22C285.248 125.96 284.868 124.53 284.868 122.93C284.868 121.31 285.248 119.88 286.008 118.64C286.788 117.38 287.838 116.4 289.158 115.7C290.498 114.98 292.028 114.62 293.748 114.62C295.448 114.62 296.968 114.98 298.308 115.7C299.648 116.4 300.698 117.37 301.458 118.61C302.218 119.85 302.598 121.29 302.598 122.93C302.598 124.53 302.218 125.96 301.458 127.22C300.698 128.46 299.648 129.44 298.308 130.16C296.968 130.88 295.448 131.24 293.748 131.24ZM293.748 127.4C294.528 127.4 295.228 127.22 295.848 126.86C296.468 126.5 296.958 125.99 297.318 125.33C297.678 124.65 297.858 123.85 297.858 122.93C297.858 121.99 297.678 121.19 297.318 120.53C296.958 119.87 296.468 119.36 295.848 119C295.228 118.64 294.528 118.46 293.748 118.46C292.968 118.46 292.268 118.64 291.648 119C291.028 119.36 290.528 119.87 290.148 120.53C289.788 121.19 289.608 121.99 289.608 122.93C289.608 123.85 289.788 124.65 290.148 125.33C290.528 125.99 291.028 126.5 291.648 126.86C292.268 127.22 292.968 127.4 293.748 127.4ZM308.336 136.82H303.866C305.166 134.56 306.096 132.29 306.656 130.01C307.236 127.71 307.526 125.3 307.526 122.78C307.526 120.26 307.236 117.86 306.656 115.58C306.096 113.28 305.166 111 303.866 108.74H308.336C309.576 110.52 310.516 112.62 311.156 115.04C311.796 117.44 312.116 120.02 312.116 122.78C312.116 125.54 311.796 128.12 311.156 130.52C310.516 132.9 309.576 135 308.336 136.82Z" fill="white"/>
<circle cx="73.5" cy="118.5" r="22.5" fill="#D9D9D9"/>
<circle cx="73.4996" cy="118.5" r="16.8864" fill="#FFCE06" stroke="black"/>
<path d="M168.94 235.82C167.74 234 166.81 231.9 166.15 229.52C165.51 227.12 165.19 224.54 165.19 221.78C165.19 219.02 165.51 216.44 166.15 214.04C166.81 211.62 167.74 209.52 168.94 207.74H173.41C172.15 210 171.23 212.28 170.65 214.58C170.07 216.86 169.78 219.26 169.78 221.78C169.78 224.3 170.07 226.71 170.65 229.01C171.23 231.29 172.15 233.56 173.41 235.82H168.94ZM183.113 230.36C181.433 230.36 179.823 230.14 178.283 229.7C176.743 229.24 175.503 228.65 174.563 227.93L176.213 224.27C177.113 224.91 178.173 225.44 179.393 225.86C180.633 226.26 181.883 226.46 183.143 226.46C184.103 226.46 184.873 226.37 185.453 226.19C186.053 225.99 186.493 225.72 186.773 225.38C187.053 225.04 187.193 224.65 187.193 224.21C187.193 223.65 186.973 223.21 186.533 222.89C186.093 222.55 185.513 222.28 184.793 222.08C184.073 221.86 183.273 221.66 182.393 221.48C181.533 221.28 180.663 221.04 179.783 220.76C178.923 220.48 178.133 220.12 177.413 219.68C176.693 219.24 176.103 218.66 175.643 217.94C175.203 217.22 174.983 216.3 174.983 215.18C174.983 213.98 175.303 212.89 175.943 211.91C176.603 210.91 177.583 210.12 178.883 209.54C180.203 208.94 181.853 208.64 183.833 208.64C185.153 208.64 186.453 208.8 187.733 209.12C189.013 209.42 190.143 209.88 191.123 210.5L189.623 214.19C188.643 213.63 187.663 213.22 186.683 212.96C185.703 212.68 184.743 212.54 183.803 212.54C182.863 212.54 182.093 212.65 181.493 212.87C180.893 213.09 180.463 213.38 180.203 213.74C179.943 214.08 179.813 214.48 179.813 214.94C179.813 215.48 180.033 215.92 180.473 216.26C180.913 216.58 181.493 216.84 182.213 217.04C182.933 217.24 183.723 217.44 184.583 217.64C185.463 217.84 186.333 218.07 187.193 218.33C188.073 218.59 188.873 218.94 189.593 219.38C190.313 219.82 190.893 220.4 191.333 221.12C191.793 221.84 192.023 222.75 192.023 223.85C192.023 225.03 191.693 226.11 191.033 227.09C190.373 228.07 189.383 228.86 188.063 229.46C186.763 230.06 185.113 230.36 183.113 230.36ZM195.014 230V213.86H199.694V230H195.014ZM197.354 211.61C196.494 211.61 195.794 211.36 195.254 210.86C194.714 210.36 194.444 209.74 194.444 209C194.444 208.26 194.714 207.64 195.254 207.14C195.794 206.64 196.494 206.39 197.354 206.39C198.214 206.39 198.914 206.63 199.454 207.11C199.994 207.57 200.264 208.17 200.264 208.91C200.264 209.69 199.994 210.34 199.454 210.86C198.934 211.36 198.234 211.61 197.354 211.61ZM213.847 213.62C215.127 213.62 216.267 213.88 217.267 214.4C218.287 214.9 219.087 215.68 219.667 216.74C220.247 217.78 220.537 219.12 220.537 220.76V230H215.857V221.48C215.857 220.18 215.567 219.22 214.987 218.6C214.427 217.98 213.627 217.67 212.587 217.67C211.847 217.67 211.177 217.83 210.577 218.15C209.997 218.45 209.537 218.92 209.197 219.56C208.877 220.2 208.717 221.02 208.717 222.02V230H204.037V213.86H208.507V218.33L207.667 216.98C208.247 215.9 209.077 215.07 210.157 214.49C211.237 213.91 212.467 213.62 213.847 213.62ZM243.175 230V226.85L242.875 226.16V220.52C242.875 219.52 242.565 218.74 241.945 218.18C241.345 217.62 240.415 217.34 239.155 217.34C238.295 217.34 237.445 217.48 236.605 217.76C235.785 218.02 235.085 218.38 234.505 218.84L232.825 215.57C233.705 214.95 234.765 214.47 236.005 214.13C237.245 213.79 238.505 213.62 239.785 213.62C242.245 213.62 244.155 214.2 245.515 215.36C246.875 216.52 247.555 218.33 247.555 220.79V230H243.175ZM238.255 230.24C236.995 230.24 235.915 230.03 235.015 229.61C234.115 229.17 233.425 228.58 232.945 227.84C232.465 227.1 232.225 226.27 232.225 225.35C232.225 224.39 232.455 223.55 232.915 222.83C233.395 222.11 234.145 221.55 235.165 221.15C236.185 220.73 237.515 220.52 239.155 220.52H243.445V223.25H239.665C238.565 223.25 237.805 223.43 237.385 223.79C236.985 224.15 236.785 224.6 236.785 225.14C236.785 225.74 237.015 226.22 237.475 226.58C237.955 226.92 238.605 227.09 239.425 227.09C240.205 227.09 240.905 226.91 241.525 226.55C242.145 226.17 242.595 225.62 242.875 224.9L243.595 227.06C243.255 228.1 242.635 228.89 241.735 229.43C240.835 229.97 239.675 230.24 238.255 230.24ZM261.601 213.62C262.881 213.62 264.021 213.88 265.021 214.4C266.041 214.9 266.841 215.68 267.421 216.74C268.001 217.78 268.291 219.12 268.291 220.76V230H263.611V221.48C263.611 220.18 263.321 219.22 262.741 218.6C262.181 217.98 261.381 217.67 260.341 217.67C259.601 217.67 258.931 217.83 258.331 218.15C257.751 218.45 257.291 218.92 256.951 219.56C256.631 220.2 256.471 221.02 256.471 222.02V230H251.791V213.86H256.261V218.33L255.421 216.98C256.001 215.9 256.831 215.07 257.911 214.49C258.991 213.91 260.221 213.62 261.601 213.62ZM272.533 230V213.86H277.213V230H272.533ZM274.873 211.61C274.013 211.61 273.313 211.36 272.773 210.86C272.233 210.36 271.963 209.74 271.963 209C271.963 208.26 272.233 207.64 272.773 207.14C273.313 206.64 274.013 206.39 274.873 206.39C275.733 206.39 276.433 206.63 276.973 207.11C277.513 207.57 277.783 208.17 277.783 208.91C277.783 209.69 277.513 210.34 276.973 210.86C276.453 211.36 275.753 211.61 274.873 211.61ZM281.556 230V207.74H286.236V230H281.556ZM290.58 230V207.74H295.26V230H290.58ZM309.503 230V226.85L309.203 226.16V220.52C309.203 219.52 308.893 218.74 308.273 218.18C307.673 217.62 306.743 217.34 305.483 217.34C304.623 217.34 303.773 217.48 302.933 217.76C302.113 218.02 301.413 218.38 300.833 218.84L299.153 215.57C300.033 214.95 301.093 214.47 302.333 214.13C303.573 213.79 304.833 213.62 306.113 213.62C308.573 213.62 310.483 214.2 311.843 215.36C313.203 216.52 313.883 218.33 313.883 220.79V230H309.503ZM304.583 230.24C303.323 230.24 302.243 230.03 301.343 229.61C300.443 229.17 299.753 228.58 299.273 227.84C298.793 227.1 298.553 226.27 298.553 225.35C298.553 224.39 298.783 223.55 299.243 222.83C299.723 222.11 300.473 221.55 301.493 221.15C302.513 220.73 303.843 220.52 305.483 220.52H309.773V223.25H305.993C304.893 223.25 304.133 223.43 303.713 223.79C303.313 224.15 303.113 224.6 303.113 225.14C303.113 225.74 303.343 226.22 303.803 226.58C304.283 226.92 304.933 227.09 305.753 227.09C306.533 227.09 307.233 226.91 307.853 226.55C308.473 226.17 308.923 225.62 309.203 224.9L309.923 227.06C309.583 228.1 308.963 228.89 308.063 229.43C307.163 229.97 306.003 230.24 304.583 230.24ZM318.119 230V213.86H322.589V218.42L321.959 217.1C322.439 215.96 323.209 215.1 324.269 214.52C325.329 213.92 326.619 213.62 328.139 213.62V217.94C327.939 217.92 327.759 217.91 327.599 217.91C327.439 217.89 327.269 217.88 327.089 217.88C325.809 217.88 324.769 218.25 323.969 218.99C323.189 219.71 322.799 220.84 322.799 222.38V230H318.119ZM333.502 235.82H329.032C330.332 233.56 331.262 231.29 331.822 229.01C332.402 226.71 332.692 224.3 332.692 221.78C332.692 219.26 332.402 216.86 331.822 214.58C331.262 212.28 330.332 210 329.032 207.74H333.502C334.742 209.52 335.682 211.62 336.322 214.04C336.962 216.44 337.282 219.02 337.282 221.78C337.282 224.54 336.962 227.12 336.322 229.52C335.682 231.9 334.742 234 333.502 235.82Z" fill="white"/>
<circle cx="72.5" cy="222.5" r="22.5" fill="#D9D9D9"/>
<circle cx="72.4996" cy="222.5" r="16.8864" fill="#555450" stroke="#FFCE06"/>
<path d="M168.94 417.82C167.74 416 166.81 413.9 166.15 411.52C165.51 409.12 165.19 406.54 165.19 403.78C165.19 401.02 165.51 398.44 166.15 396.04C166.81 393.62 167.74 391.52 168.94 389.74H173.41C172.15 392 171.23 394.28 170.65 396.58C170.07 398.86 169.78 401.26 169.78 403.78C169.78 406.3 170.07 408.71 170.65 411.01C171.23 413.29 172.15 415.56 173.41 417.82H168.94ZM183.113 412.36C181.433 412.36 179.823 412.14 178.283 411.7C176.743 411.24 175.503 410.65 174.563 409.93L176.213 406.27C177.113 406.91 178.173 407.44 179.393 407.86C180.633 408.26 181.883 408.46 183.143 408.46C184.103 408.46 184.873 408.37 185.453 408.19C186.053 407.99 186.493 407.72 186.773 407.38C187.053 407.04 187.193 406.65 187.193 406.21C187.193 405.65 186.973 405.21 186.533 404.89C186.093 404.55 185.513 404.28 184.793 404.08C184.073 403.86 183.273 403.66 182.393 403.48C181.533 403.28 180.663 403.04 179.783 402.76C178.923 402.48 178.133 402.12 177.413 401.68C176.693 401.24 176.103 400.66 175.643 399.94C175.203 399.22 174.983 398.3 174.983 397.18C174.983 395.98 175.303 394.89 175.943 393.91C176.603 392.91 177.583 392.12 178.883 391.54C180.203 390.94 181.853 390.64 183.833 390.64C185.153 390.64 186.453 390.8 187.733 391.12C189.013 391.42 190.143 391.88 191.123 392.5L189.623 396.19C188.643 395.63 187.663 395.22 186.683 394.96C185.703 394.68 184.743 394.54 183.803 394.54C182.863 394.54 182.093 394.65 181.493 394.87C180.893 395.09 180.463 395.38 180.203 395.74C179.943 396.08 179.813 396.48 179.813 396.94C179.813 397.48 180.033 397.92 180.473 398.26C180.913 398.58 181.493 398.84 182.213 399.04C182.933 399.24 183.723 399.44 184.583 399.64C185.463 399.84 186.333 400.07 187.193 400.33C188.073 400.59 188.873 400.94 189.593 401.38C190.313 401.82 190.893 402.4 191.333 403.12C191.793 403.84 192.023 404.75 192.023 405.85C192.023 407.03 191.693 408.11 191.033 409.09C190.373 410.07 189.383 410.86 188.063 411.46C186.763 412.06 185.113 412.36 183.113 412.36ZM195.014 412V395.86H199.694V412H195.014ZM197.354 393.61C196.494 393.61 195.794 393.36 195.254 392.86C194.714 392.36 194.444 391.74 194.444 391C194.444 390.26 194.714 389.64 195.254 389.14C195.794 388.64 196.494 388.39 197.354 388.39C198.214 388.39 198.914 388.63 199.454 389.11C199.994 389.57 200.264 390.17 200.264 390.91C200.264 391.69 199.994 392.34 199.454 392.86C198.934 393.36 198.234 393.61 197.354 393.61ZM224.707 395.62C225.987 395.62 227.117 395.88 228.097 396.4C229.097 396.9 229.877 397.68 230.437 398.74C231.017 399.78 231.307 401.12 231.307 402.76V412H226.627V403.48C226.627 402.18 226.357 401.22 225.817 400.6C225.277 399.98 224.517 399.67 223.537 399.67C222.857 399.67 222.247 399.83 221.707 400.15C221.167 400.45 220.747 400.91 220.447 401.53C220.147 402.15 219.997 402.94 219.997 403.9V412H215.317V403.48C215.317 402.18 215.047 401.22 214.507 400.6C213.987 399.98 213.237 399.67 212.257 399.67C211.577 399.67 210.967 399.83 210.427 400.15C209.887 400.45 209.467 400.91 209.167 401.53C208.867 402.15 208.717 402.94 208.717 403.9V412H204.037V395.86H208.507V400.27L207.667 398.98C208.227 397.88 209.017 397.05 210.037 396.49C211.077 395.91 212.257 395.62 213.577 395.62C215.057 395.62 216.347 396 217.447 396.76C218.567 397.5 219.307 398.64 219.667 400.18L218.017 399.73C218.557 398.47 219.417 397.47 220.597 396.73C221.797 395.99 223.167 395.62 224.707 395.62ZM245.042 412.24C243.682 412.24 242.492 411.94 241.472 411.34C240.452 410.74 239.652 409.83 239.072 408.61C238.512 407.37 238.232 405.81 238.232 403.93C238.232 402.03 238.502 400.47 239.042 399.25C239.582 398.03 240.362 397.12 241.382 396.52C242.402 395.92 243.622 395.62 245.042 395.62C246.562 395.62 247.922 395.97 249.122 396.67C250.342 397.35 251.302 398.31 252.002 399.55C252.722 400.79 253.082 402.25 253.082 403.93C253.082 405.63 252.722 407.1 252.002 408.34C251.302 409.58 250.342 410.54 249.122 411.22C247.922 411.9 246.562 412.24 245.042 412.24ZM235.502 417.82V395.86H239.972V399.16L239.882 403.96L240.182 408.73V417.82H235.502ZM244.232 408.4C245.012 408.4 245.702 408.22 246.302 407.86C246.922 407.5 247.412 406.99 247.772 406.33C248.152 405.65 248.342 404.85 248.342 403.93C248.342 402.99 248.152 402.19 247.772 401.53C247.412 400.87 246.922 400.36 246.302 400C245.702 399.64 245.012 399.46 244.232 399.46C243.452 399.46 242.752 399.64 242.132 400C241.512 400.36 241.022 400.87 240.662 401.53C240.302 402.19 240.122 402.99 240.122 403.93C240.122 404.85 240.302 405.65 240.662 406.33C241.022 406.99 241.512 407.5 242.132 407.86C242.752 408.22 243.452 408.4 244.232 408.4ZM256.215 412V389.74H260.895V412H256.215ZM273.248 412.24C271.408 412.24 269.788 411.88 268.388 411.16C267.008 410.44 265.938 409.46 265.178 408.22C264.418 406.96 264.038 405.53 264.038 403.93C264.038 402.31 264.408 400.88 265.148 399.64C265.908 398.38 266.938 397.4 268.238 396.7C269.538 395.98 271.008 395.62 272.648 395.62C274.228 395.62 275.648 395.96 276.908 396.64C278.188 397.3 279.198 398.26 279.938 399.52C280.678 400.76 281.048 402.25 281.048 403.99C281.048 404.17 281.038 404.38 281.018 404.62C280.998 404.84 280.978 405.05 280.958 405.25H267.848V402.52H278.498L276.698 403.33C276.698 402.49 276.528 401.76 276.188 401.14C275.848 400.52 275.378 400.04 274.778 399.7C274.178 399.34 273.478 399.16 272.678 399.16C271.878 399.16 271.168 399.34 270.548 399.7C269.948 400.04 269.478 400.53 269.138 401.17C268.798 401.79 268.628 402.53 268.628 403.39V404.11C268.628 404.99 268.818 405.77 269.198 406.45C269.598 407.11 270.148 407.62 270.848 407.98C271.568 408.32 272.408 408.49 273.368 408.49C274.228 408.49 274.978 408.36 275.618 408.1C276.278 407.84 276.878 407.45 277.418 406.93L279.908 409.63C279.168 410.47 278.238 411.12 277.118 411.58C275.998 412.02 274.708 412.24 273.248 412.24ZM293.23 412V395.5C293.23 393.68 293.77 392.23 294.85 391.15C295.93 390.05 297.47 389.5 299.47 389.5C300.15 389.5 300.8 389.57 301.42 389.71C302.06 389.85 302.6 390.07 303.04 390.37L301.81 393.76C301.55 393.58 301.26 393.44 300.94 393.34C300.62 393.24 300.28 393.19 299.92 393.19C299.24 393.19 298.71 393.39 298.33 393.79C297.97 394.17 297.79 394.75 297.79 395.53V397.03L297.91 399.04V412H293.23ZM290.74 399.82V396.22H301.93V399.82H290.74ZM313.869 412V408.85L313.569 408.16V402.52C313.569 401.52 313.259 400.74 312.639 400.18C312.039 399.62 311.109 399.34 309.849 399.34C308.989 399.34 308.139 399.48 307.299 399.76C306.479 400.02 305.779 400.38 305.199 400.84L303.519 397.57C304.399 396.95 305.459 396.47 306.699 396.13C307.939 395.79 309.199 395.62 310.479 395.62C312.939 395.62 314.849 396.2 316.209 397.36C317.569 398.52 318.249 400.33 318.249 402.79V412H313.869ZM308.949 412.24C307.689 412.24 306.609 412.03 305.709 411.61C304.809 411.17 304.119 410.58 303.639 409.84C303.159 409.1 302.919 408.27 302.919 407.35C302.919 406.39 303.149 405.55 303.609 404.83C304.089 404.11 304.839 403.55 305.859 403.15C306.879 402.73 308.209 402.52 309.849 402.52H314.139V405.25H310.359C309.259 405.25 308.499 405.43 308.079 405.79C307.679 406.15 307.479 406.6 307.479 407.14C307.479 407.74 307.709 408.22 308.169 408.58C308.649 408.92 309.299 409.09 310.119 409.09C310.899 409.09 311.599 408.91 312.219 408.55C312.839 408.17 313.289 407.62 313.569 406.9L314.289 409.06C313.949 410.1 313.329 410.89 312.429 411.43C311.529 411.97 310.369 412.24 308.949 412.24ZM321.374 412V409.18L330.914 397.9L331.724 399.46H321.584V395.86H335.504V398.68L325.964 409.96L325.124 408.4H335.774V412H321.374ZM341.383 417.82H336.913C338.213 415.56 339.143 413.29 339.703 411.01C340.283 408.71 340.573 406.3 340.573 403.78C340.573 401.26 340.283 398.86 339.703 396.58C339.143 394.28 338.213 392 336.913 389.74H341.383C342.623 391.52 343.563 393.62 344.203 396.04C344.843 398.44 345.163 401.02 345.163 403.78C345.163 406.54 344.843 409.12 344.203 411.52C343.563 413.9 342.623 416 341.383 417.82Z" fill="white"/>
<rect x="51" y="382" width="45" height="45" fill="#D9D9D9"/>
<path d="M168.94 317.82C167.74 316 166.81 313.9 166.15 311.52C165.51 309.12 165.19 306.54 165.19 303.78C165.19 301.02 165.51 298.44 166.15 296.04C166.81 293.62 167.74 291.52 168.94 289.74H173.41C172.15 292 171.23 294.28 170.65 296.58C170.07 298.86 169.78 301.26 169.78 303.78C169.78 306.3 170.07 308.71 170.65 311.01C171.23 313.29 172.15 315.56 173.41 317.82H168.94ZM176.213 312V291H185.753C188.033 291 190.043 291.44 191.783 292.32C193.523 293.18 194.883 294.39 195.863 295.95C196.843 297.51 197.333 299.36 197.333 301.5C197.333 303.62 196.843 305.47 195.863 307.05C194.883 308.61 193.523 309.83 191.783 310.71C190.043 311.57 188.033 312 185.753 312H176.213ZM181.073 308.01H185.513C186.913 308.01 188.123 307.75 189.143 307.23C190.183 306.69 190.983 305.93 191.543 304.95C192.123 303.97 192.413 302.82 192.413 301.5C192.413 300.16 192.123 299.01 191.543 298.05C190.983 297.07 190.183 296.32 189.143 295.8C188.123 295.26 186.913 294.99 185.513 294.99H181.073V308.01ZM208.348 312.24C206.628 312.24 205.098 311.88 203.758 311.16C202.438 310.44 201.388 309.46 200.608 308.22C199.848 306.96 199.468 305.53 199.468 303.93C199.468 302.31 199.848 300.88 200.608 299.64C201.388 298.38 202.438 297.4 203.758 296.7C205.098 295.98 206.628 295.62 208.348 295.62C210.048 295.62 211.568 295.98 212.908 296.7C214.248 297.4 215.298 298.37 216.058 299.61C216.818 300.85 217.198 302.29 217.198 303.93C217.198 305.53 216.818 306.96 216.058 308.22C215.298 309.46 214.248 310.44 212.908 311.16C211.568 311.88 210.048 312.24 208.348 312.24ZM208.348 308.4C209.128 308.4 209.828 308.22 210.448 307.86C211.068 307.5 211.558 306.99 211.918 306.33C212.278 305.65 212.458 304.85 212.458 303.93C212.458 302.99 212.278 302.19 211.918 301.53C211.558 300.87 211.068 300.36 210.448 300C209.828 299.64 209.128 299.46 208.348 299.46C207.568 299.46 206.868 299.64 206.248 300C205.628 300.36 205.128 300.87 204.748 301.53C204.388 302.19 204.208 302.99 204.208 303.93C204.208 304.85 204.388 305.65 204.748 306.33C205.128 306.99 205.628 307.5 206.248 307.86C206.868 308.22 207.568 308.4 208.348 308.4ZM229.866 312.24C228.446 312.24 227.226 311.94 226.206 311.34C225.186 310.74 224.406 309.83 223.866 308.61C223.326 307.37 223.056 305.81 223.056 303.93C223.056 302.03 223.336 300.47 223.896 299.25C224.476 298.03 225.276 297.12 226.296 296.52C227.316 295.92 228.506 295.62 229.866 295.62C231.386 295.62 232.746 295.96 233.946 296.64C235.166 297.32 236.126 298.28 236.826 299.52C237.546 300.76 237.906 302.23 237.906 303.93C237.906 305.61 237.546 307.07 236.826 308.31C236.126 309.55 235.166 310.52 233.946 311.22C232.746 311.9 231.386 312.24 229.866 312.24ZM220.326 312V289.74H225.006V299.13L224.706 303.9L224.796 308.7V312H220.326ZM229.056 308.4C229.836 308.4 230.526 308.22 231.126 307.86C231.746 307.5 232.236 306.99 232.596 306.33C232.976 305.65 233.166 304.85 233.166 303.93C233.166 302.99 232.976 302.19 232.596 301.53C232.236 300.87 231.746 300.36 231.126 300C230.526 299.64 229.836 299.46 229.056 299.46C228.276 299.46 227.576 299.64 226.956 300C226.336 300.36 225.846 300.87 225.486 301.53C225.126 302.19 224.946 302.99 224.946 303.93C224.946 304.85 225.126 305.65 225.486 306.33C225.846 306.99 226.336 307.5 226.956 307.86C227.576 308.22 228.276 308.4 229.056 308.4ZM241.039 312V289.74H245.719V312H241.039ZM258.072 312.24C256.232 312.24 254.612 311.88 253.212 311.16C251.832 310.44 250.762 309.46 250.002 308.22C249.242 306.96 248.862 305.53 248.862 303.93C248.862 302.31 249.232 300.88 249.972 299.64C250.732 298.38 251.762 297.4 253.062 296.7C254.362 295.98 255.832 295.62 257.472 295.62C259.052 295.62 260.472 295.96 261.732 296.64C263.012 297.3 264.022 298.26 264.762 299.52C265.502 300.76 265.872 302.25 265.872 303.99C265.872 304.17 265.862 304.38 265.842 304.62C265.822 304.84 265.802 305.05 265.782 305.25H252.672V302.52H263.322L261.522 303.33C261.522 302.49 261.352 301.76 261.012 301.14C260.672 300.52 260.202 300.04 259.602 299.7C259.002 299.34 258.302 299.16 257.502 299.16C256.702 299.16 255.992 299.34 255.372 299.7C254.772 300.04 254.302 300.53 253.962 301.17C253.622 301.79 253.452 302.53 253.452 303.39V304.11C253.452 304.99 253.642 305.77 254.022 306.45C254.422 307.11 254.972 307.62 255.672 307.98C256.392 308.32 257.232 308.49 258.192 308.49C259.052 308.49 259.802 308.36 260.442 308.1C261.102 307.84 261.702 307.45 262.242 306.93L264.732 309.63C263.992 310.47 263.062 311.12 261.942 311.58C260.822 312.02 259.532 312.24 258.072 312.24ZM278.054 312V295.5C278.054 293.68 278.594 292.23 279.674 291.15C280.754 290.05 282.294 289.5 284.294 289.5C284.974 289.5 285.624 289.57 286.244 289.71C286.884 289.85 287.424 290.07 287.864 290.37L286.634 293.76C286.374 293.58 286.084 293.44 285.764 293.34C285.444 293.24 285.104 293.19 284.744 293.19C284.064 293.19 283.534 293.39 283.154 293.79C282.794 294.17 282.614 294.75 282.614 295.53V297.03L282.734 299.04V312H278.054ZM275.564 299.82V296.22H286.754V299.82H275.564ZM298.693 312V308.85L298.393 308.16V302.52C298.393 301.52 298.083 300.74 297.463 300.18C296.863 299.62 295.933 299.34 294.673 299.34C293.813 299.34 292.963 299.48 292.123 299.76C291.303 300.02 290.603 300.38 290.023 300.84L288.343 297.57C289.223 296.95 290.283 296.47 291.523 296.13C292.763 295.79 294.023 295.62 295.303 295.62C297.763 295.62 299.673 296.2 301.033 297.36C302.393 298.52 303.073 300.33 303.073 302.79V312H298.693ZM293.773 312.24C292.513 312.24 291.433 312.03 290.533 311.61C289.633 311.17 288.943 310.58 288.463 309.84C287.983 309.1 287.743 308.27 287.743 307.35C287.743 306.39 287.973 305.55 288.433 304.83C288.913 304.11 289.663 303.55 290.683 303.15C291.703 302.73 293.033 302.52 294.673 302.52H298.963V305.25H295.183C294.083 305.25 293.323 305.43 292.903 305.79C292.503 306.15 292.303 306.6 292.303 307.14C292.303 307.74 292.533 308.22 292.993 308.58C293.473 308.92 294.123 309.09 294.943 309.09C295.723 309.09 296.423 308.91 297.043 308.55C297.663 308.17 298.113 307.62 298.393 306.9L299.113 309.06C298.773 310.1 298.153 310.89 297.253 311.43C296.353 311.97 295.193 312.24 293.773 312.24ZM306.198 312V309.18L315.738 297.9L316.548 299.46H306.408V295.86H320.328V298.68L310.788 309.96L309.948 308.4H320.598V312H306.198ZM326.208 317.82H321.738C323.038 315.56 323.968 313.29 324.528 311.01C325.108 308.71 325.397 306.3 325.397 303.78C325.397 301.26 325.108 298.86 324.528 296.58C323.968 294.28 323.038 292 321.738 289.74H326.208C327.448 291.52 328.388 293.62 329.028 296.04C329.668 298.44 329.988 301.02 329.988 303.78C329.988 306.54 329.668 309.12 329.028 311.52C328.388 313.9 327.448 316 326.208 317.82Z" fill="white"/>
<rect x="51" y="289" width="45" height="45" fill="#FFCE06"/>
<path d="M168.94 498.82C167.74 497 166.81 494.9 166.15 492.52C165.51 490.12 165.19 487.54 165.19 484.78C165.19 482.02 165.51 479.44 166.15 477.04C166.81 474.62 167.74 472.52 168.94 470.74H173.41C172.15 473 171.23 475.28 170.65 477.58C170.07 479.86 169.78 482.26 169.78 484.78C169.78 487.3 170.07 489.71 170.65 492.01C171.23 494.29 172.15 496.56 173.41 498.82H168.94ZM180.683 480.46H190.793V484.24H180.683V480.46ZM181.043 489.1H192.473V493H176.213V472H192.083V475.9H181.043V489.1ZM196.01 493V470.74H200.69V493H196.01ZM205.033 493V476.86H209.713V493H205.033ZM207.373 474.61C206.513 474.61 205.813 474.36 205.273 473.86C204.733 473.36 204.463 472.74 204.463 472C204.463 471.26 204.733 470.64 205.273 470.14C205.813 469.64 206.513 469.39 207.373 469.39C208.233 469.39 208.933 469.63 209.473 470.11C210.013 470.57 210.283 471.17 210.283 471.91C210.283 472.69 210.013 473.34 209.473 473.86C208.953 474.36 208.253 474.61 207.373 474.61ZM234.726 476.62C236.006 476.62 237.136 476.88 238.116 477.4C239.116 477.9 239.896 478.68 240.456 479.74C241.036 480.78 241.326 482.12 241.326 483.76V493H236.646V484.48C236.646 483.18 236.376 482.22 235.836 481.6C235.296 480.98 234.536 480.67 233.556 480.67C232.876 480.67 232.266 480.83 231.726 481.15C231.186 481.45 230.766 481.91 230.466 482.53C230.166 483.15 230.016 483.94 230.016 484.9V493H225.336V484.48C225.336 483.18 225.066 482.22 224.526 481.6C224.006 480.98 223.256 480.67 222.276 480.67C221.596 480.67 220.986 480.83 220.446 481.15C219.906 481.45 219.486 481.91 219.186 482.53C218.886 483.15 218.736 483.94 218.736 484.9V493H214.056V476.86H218.526V481.27L217.686 479.98C218.246 478.88 219.036 478.05 220.056 477.49C221.096 476.91 222.276 476.62 223.596 476.62C225.076 476.62 226.366 477 227.466 477.76C228.586 478.5 229.326 479.64 229.686 481.18L228.036 480.73C228.576 479.47 229.436 478.47 230.616 477.73C231.816 476.99 233.186 476.62 234.726 476.62ZM245.521 493V476.86H250.201V493H245.521ZM247.861 474.61C247.001 474.61 246.301 474.36 245.761 473.86C245.221 473.36 244.951 472.74 244.951 472C244.951 471.26 245.221 470.64 245.761 470.14C246.301 469.64 247.001 469.39 247.861 469.39C248.721 469.39 249.421 469.63 249.961 470.11C250.501 470.57 250.771 471.17 250.771 471.91C250.771 472.69 250.501 473.34 249.961 473.86C249.441 474.36 248.741 474.61 247.861 474.61ZM264.355 476.62C265.635 476.62 266.775 476.88 267.775 477.4C268.795 477.9 269.595 478.68 270.175 479.74C270.755 480.78 271.045 482.12 271.045 483.76V493H266.365V484.48C266.365 483.18 266.075 482.22 265.495 481.6C264.935 480.98 264.135 480.67 263.095 480.67C262.355 480.67 261.685 480.83 261.085 481.15C260.505 481.45 260.045 481.92 259.705 482.56C259.385 483.2 259.225 484.02 259.225 485.02V493H254.545V476.86H259.015V481.33L258.175 479.98C258.755 478.9 259.585 478.07 260.665 477.49C261.745 476.91 262.975 476.62 264.355 476.62ZM285.187 493V489.85L284.887 489.16V483.52C284.887 482.52 284.577 481.74 283.957 481.18C283.357 480.62 282.427 480.34 281.167 480.34C280.307 480.34 279.457 480.48 278.617 480.76C277.797 481.02 277.097 481.38 276.517 481.84L274.837 478.57C275.717 477.95 276.777 477.47 278.017 477.13C279.257 476.79 280.517 476.62 281.797 476.62C284.257 476.62 286.167 477.2 287.527 478.36C288.887 479.52 289.567 481.33 289.567 483.79V493H285.187ZM280.267 493.24C279.007 493.24 277.927 493.03 277.027 492.61C276.127 492.17 275.437 491.58 274.957 490.84C274.477 490.1 274.237 489.27 274.237 488.35C274.237 487.39 274.467 486.55 274.927 485.83C275.407 485.11 276.157 484.55 277.177 484.15C278.197 483.73 279.527 483.52 281.167 483.52H285.457V486.25H281.677C280.577 486.25 279.817 486.43 279.397 486.79C278.997 487.15 278.797 487.6 278.797 488.14C278.797 488.74 279.027 489.22 279.487 489.58C279.967 489.92 280.617 490.09 281.437 490.09C282.217 490.09 282.917 489.91 283.537 489.55C284.157 489.17 284.607 488.62 284.887 487.9L285.607 490.06C285.267 491.1 284.647 491.89 283.747 492.43C282.847 492.97 281.687 493.24 280.267 493.24ZM293.803 493V476.86H298.273V481.42L297.643 480.1C298.123 478.96 298.893 478.1 299.953 477.52C301.013 476.92 302.303 476.62 303.823 476.62V480.94C303.623 480.92 303.443 480.91 303.283 480.91C303.123 480.89 302.953 480.88 302.773 480.88C301.493 480.88 300.453 481.25 299.653 481.99C298.873 482.71 298.483 483.84 298.483 485.38V493H293.803ZM309.186 498.82H304.716C306.016 496.56 306.946 494.29 307.506 492.01C308.086 489.71 308.376 487.3 308.376 484.78C308.376 482.26 308.086 479.86 307.506 477.58C306.946 475.28 306.016 473 304.716 470.74H309.186C310.426 472.52 311.366 474.62 312.006 477.04C312.646 479.44 312.966 482.02 312.966 484.78C312.966 487.54 312.646 490.12 312.006 492.52C311.366 494.9 310.426 497 309.186 498.82Z" fill="white"/>
<path d="M63.2375 497.765L86.4321 474.57L92.9085 481.047L69.7139 504.241L63.2375 497.765ZM63.0869 480.545L69.2119 474.42L93.1093 498.317L86.9843 504.442L63.0869 480.545Z" fill="#B10505"/>
<path d="M47.78 60.74C46.6333 60.74 45.6067 60.46 44.7 59.9C43.7933 59.3267 43.08 58.5 42.56 57.42C42.04 56.34 41.78 55.0333 41.78 53.5C41.78 51.9667 42.04 50.66 42.56 49.58C43.08 48.5 43.7933 47.68 44.7 47.12C45.6067 46.5467 46.6333 46.26 47.78 46.26C48.94 46.26 49.9667 46.5467 50.86 47.12C51.7667 47.68 52.48 48.5 53 49.58C53.52 50.66 53.78 51.9667 53.78 53.5C53.78 55.0333 53.52 56.34 53 57.42C52.48 58.5 51.7667 59.3267 50.86 59.9C49.9667 60.46 48.94 60.74 47.78 60.74ZM47.78 58C48.3267 58 48.8 57.8467 49.2 57.54C49.6133 57.2333 49.9333 56.7467 50.16 56.08C50.4 55.4133 50.52 54.5533 50.52 53.5C50.52 52.4467 50.4 51.5867 50.16 50.92C49.9333 50.2533 49.6133 49.7667 49.2 49.46C48.8 49.1533 48.3267 49 47.78 49C47.2467 49 46.7733 49.1533 46.36 49.46C45.96 49.7667 45.64 50.2533 45.4 50.92C45.1733 51.5867 45.06 52.4467 45.06 53.5C45.06 54.5533 45.1733 55.4133 45.4 56.08C45.64 56.7467 45.96 57.2333 46.36 57.54C46.7733 57.8467 47.2467 58 47.78 58Z" fill="white"/>
<line x1="69.5" y1="43.5" x2="69.5" y2="63.5" stroke="black"/>
<path d="M85.7 58.12V48.88H88.28V58.12H85.7ZM82.24 54.72V52.28H91.76V54.72H82.24ZM101.577 60.5V47.7L102.977 49.1H98.7767V46.5H104.817V60.5H101.577Z" fill="white"/>
<path d="M29.04 56.12V53.62H34.7V56.12H29.04Z" fill="white"/>
</svg>
