<svg width="230" height="230" viewBox="0 0 230 230" fill="none" xmlns="http://www.w3.org/2000/svg">
<rect width="230" height="230" transform="matrix(1 0 0 -1 0 230)" fill="#FFCE06"/>
<path d="M40.5 45H111.5C60.0663 54.7913 37.8032 73.4709 15 134M191.5 45H117.5C172.146 57.482 193.036 77.4378 214 134" stroke="#A12DE6" stroke-width="2"/>
<path d="M131.595 145.037H127.135V164H131.595V145.037Z" fill="white"/>
<path d="M142 116.899V112.617L118.421 50.8351H115.527V52.6702L138.036 112.005V117.511L124.162 145.037H127.135L142 116.899Z" fill="white"/>
<path d="M98.3964 145.037V164H127.135V145.037H124.162H123.171H102.36H98.3964Z" fill="black"/>
<path d="M87 116.899L102.36 145.037H123.171H124.162L138.036 117.511V112.005L115.527 52.6702V104.665H114.252V50.8351H111.06L87 112.617V116.899Z" fill="#B19005"/>
<path d="M127.135 145.037L142 116.899V112.617L118.421 50.8351M127.135 145.037H131.595V164H127.135M127.135 145.037H124.162M127.135 145.037H123.171M127.135 145.037V164M102.36 145.037H98.3964V164H127.135M102.36 145.037L87 116.899V112.617L111.06 50.8351M102.36 145.037H123.171M111.06 50.8351L111.775 49H117.721L118.421 50.8351M111.06 50.8351H114.252V104.665H115.527V52.6702M118.421 50.8351H115.527V52.6702M115.527 52.6702L138.036 112.005V117.511L124.162 145.037M124.162 145.037H123.171" stroke="black" stroke-width="2"/>
<path d="M119 111C119 113.94 117.046 116 115 116C112.954 116 111 113.94 111 111C111 108.06 112.954 106 115 106C117.046 106 119 108.06 119 111Z" fill="black" stroke="black" stroke-width="2"/>
<path d="M117 111C117 111.909 116.722 112.694 116.321 113.228C115.92 113.763 115.443 114 115 114C114.557 114 114.08 113.763 113.679 113.228C113.278 112.694 113 111.909 113 111C113 110.091 113.278 109.306 113.679 108.772C114.08 108.237 114.557 108 115 108C115.443 108 115.92 108.237 116.321 108.772C116.722 109.306 117 110.091 117 111Z" fill="#B19005" stroke="black" stroke-width="2"/>
<path d="M117 45.5C117 47.6814 115.661 49 114.5 49C113.339 49 112 47.6814 112 45.5C112 43.3186 113.339 42 114.5 42C115.661 42 117 43.3186 117 45.5Z" fill="#B19005" stroke="black" stroke-width="2"/>
<path d="M40 45.5C40 47.6814 38.6614 49 37.5 49C36.3386 49 35 47.6814 35 45.5C35 43.3186 36.3386 42 37.5 42C38.6614 42 40 43.3186 40 45.5Z" fill="#B19005" stroke="black" stroke-width="2"/>
<path d="M197 45.5C197 47.6814 195.661 49 194.5 49C193.339 49 192 47.6814 192 45.5C192 43.3186 193.339 42 194.5 42C195.661 42 197 43.3186 197 45.5Z" fill="#B19005" stroke="black" stroke-width="2"/>
<path d="M217 137.5C217 139.681 215.661 141 214.5 141C213.339 141 212 139.681 212 137.5C212 135.319 213.339 134 214.5 134C215.661 134 217 135.319 217 137.5Z" fill="#B19005" stroke="black" stroke-width="2"/>
<path d="M17 137.5C17 139.681 15.6614 141 14.5 141C13.3386 141 12 139.681 12 137.5C12 135.319 13.3386 134 14.5 134C15.6614 134 17 135.319 17 137.5Z" fill="#B19005" stroke="black" stroke-width="2"/>
</svg>
