<svg width="132" height="166" viewBox="0 0 132 166" fill="none" xmlns="http://www.w3.org/2000/svg">
<path d="M119 83C119 116.059 94.8194 142 66 142C37.1806 142 13 116.059 13 83C13 49.9407 37.1806 24 66 24C94.8194 24 119 49.9407 119 83Z" fill="#F5F5F5" stroke="#1A972F" stroke-width="10"/>
<path d="M56 91.1694L43.5 78.6694C37.7759 77.1544 35.9352 78.7448 35 86.1694L52 105.169C55.344 106.974 56.9212 106.71 59.5 105.169L96 70.6694C97.0803 61.6086 95.1411 59.3025 88 60.1694L56 91.1694Z" fill="#1A972F"/>
<path d="M123 83C123 117.889 97.3899 146 66 146C34.6101 146 9 117.889 9 83C9 48.1112 34.6101 20 66 20C97.3899 20 123 48.1112 123 83Z" stroke="black" stroke-width="2"/>
<path d="M114.5 83C114.5 113.16 92.9524 137.5 66.5 137.5C40.0476 137.5 18.5 113.16 18.5 83C18.5 52.8395 40.0476 28.5 66.5 28.5C92.9524 28.5 114.5 52.8395 114.5 83Z" stroke="black"/>
</svg>
