<svg width="230" height="230" viewBox="0 0 230 230" fill="none" xmlns="http://www.w3.org/2000/svg">
<rect width="230" height="230" transform="matrix(1 0 0 -1 0 230)" fill="#FFCE06"/>
<path d="M104.5 39.0628V44.5628L103 68.5628L114.5 55.0628L125 59.5628L126.5 31.5628V26.953C126.065 26.7958 125.572 26.6677 125 26.5628L104.5 39.0628Z" fill="#B19005"/>
<path d="M104.5 44.5628L64.9996 68.5628C63.6508 70.4039 62.96 71.7081 62.5 74.5628L40 203.563C41.9554 208.545 41.5897 211.635 68.5 211.563L173 195.063C177.04 194.346 178.48 192.659 178.5 185.563L172.5 100.527C171.122 103.013 169.582 104.346 166 106.063L166.5 129.063C170.755 129.586 172.088 130.892 173 134.563V157.063C172.543 159.694 172.107 161.095 170 163.063L170.5 185.563C170.196 187.623 169.366 188.251 167.5 189.063L65.4996 207.063H57.9996H51.4996C50.6517 206.155 50.9187 205.392 52.9996 203.563L154 185.563C157.301 184.906 158.515 184.091 158.5 181.063L157.955 165.063L156.831 132.063L153.357 30.0628L153 19.5628C152.581 18.3253 152.132 17.8094 150 18.0628L130 30.0628L126.5 31.5628L125 59.5628L114.5 55.0628L103 68.5628L104.5 44.5628Z" fill="black"/>
<path d="M166.5 129.063L166 106.063C163.666 106.563 158.9 107.563 158.5 107.563C158.1 107.563 158 90.2295 158 81.5628L164 78.5628L163.5 62.1511L160.5 63.5628L159.5 41.5628L161.5 40.563V36.0628L153.357 30.0628L156.831 132.063C161.08 130.235 163.16 129.632 166.5 129.063Z" fill="#D9D9D9"/>
<path d="M158.5 181.063C158.515 184.091 157.301 184.906 154 185.563L52.9996 203.563C50.9187 205.392 50.6517 206.155 51.4996 207.063H57.9996H65.4996L167.5 189.063C169.366 188.251 170.196 187.623 170.5 185.563L170 163.063C165.895 164.449 163.3 164.93 157.955 165.063L158.5 181.063Z" fill="#D9D9D9"/>
<path d="M170 163.063C172.107 161.095 172.543 159.694 173 157.063V134.563C172.088 130.892 170.755 129.586 166.5 129.063C163.16 129.632 161.08 130.235 156.831 132.063L157.955 165.063C163.3 164.93 165.895 164.449 170 163.063Z" fill="#FFCE06"/>
<path d="M173 99.5628L172.5 80.5628C171.92 79.1839 171.437 78.4932 170 77.5628C167.405 77.5163 166.116 77.7512 164 78.5628L158 81.5628C158 90.2295 158.1 107.563 158.5 107.563C158.9 107.563 163.666 106.563 166 106.063C169.582 104.346 171.122 103.013 172.5 100.527C172.668 100.223 172.833 99.9031 173 99.5628Z" fill="#B19005"/>
<path d="M167.5 37.5628L167 35.0628C165.7 34.4095 164.309 34.8586 161.5 36.0628V40.563L167.5 37.5628Z" fill="black"/>
<path fill-rule="evenodd" clip-rule="evenodd" d="M169.5 59.5628L170 77.5628L169 59.5628L163.5 62.1511L160.5 63.5628L159.5 41.5628L161.5 40.563L167.5 37.5628C170.682 36.8886 171.776 37.3787 172 40.0628L173 55.0628C172.206 57.2537 171.525 58.2962 169.5 59.5628Z" fill="#5A1980"/>
<path d="M169 59.5628L163.5 62.1511L164 78.5628C166.116 77.7512 167.405 77.5163 170 77.5628L169 59.5628Z" fill="black"/>
<path d="M130 30.0628C128.884 28.4641 128.067 27.5196 126.5 26.953V31.5628L130 30.0628Z" fill="#B19005"/>
<path d="M104.5 44.5628L64.9996 68.5628C63.6508 70.4039 62.96 71.7081 62.5 74.5628L40 203.563C41.9554 208.545 41.5897 211.635 68.5 211.563L173 195.063C177.04 194.346 178.48 192.659 178.5 185.563L172.5 100.527M104.5 44.5628V39.0628L125 26.5628C125.572 26.6677 126.065 26.7958 126.5 26.953M104.5 44.5628L103 68.5628L114.5 55.0628L125 59.5628L126.5 31.5628M130 30.0628L150 18.0628C152.132 17.8094 152.581 18.3253 153 19.5628L153.357 30.0628M130 30.0628C128.884 28.4641 128.067 27.5196 126.5 26.953M130 30.0628L126.5 31.5628M170 163.063L170.5 185.563C170.196 187.623 169.366 188.251 167.5 189.063L65.4996 207.063H57.9996H51.4996C50.6517 206.155 50.9187 205.392 52.9996 203.563L154 185.563C157.301 184.906 158.515 184.091 158.5 181.063L157.955 165.063M170 163.063C172.107 161.095 172.543 159.694 173 157.063V134.563C172.088 130.892 170.755 129.586 166.5 129.063M170 163.063C165.895 164.449 163.3 164.93 157.955 165.063M166.5 129.063L166 106.063M166.5 129.063C163.16 129.632 161.08 130.235 156.831 132.063M166 106.063C169.582 104.346 171.122 103.013 172.5 100.527M166 106.063C163.666 106.563 158.9 107.563 158.5 107.563C158.1 107.563 158 90.2295 158 81.5628L164 78.5628M170 77.5628C171.437 78.4932 171.92 79.1839 172.5 80.5628L173 99.5628C172.833 99.9031 172.668 100.223 172.5 100.527M170 77.5628L169.5 59.5628C171.525 58.2962 172.206 57.2537 173 55.0628L172 40.0628C171.776 37.3787 170.682 36.8886 167.5 37.5628M170 77.5628C167.405 77.5164 166.116 77.7512 164 78.5628M170 77.5628L169 59.5628L163.5 62.1511M167.5 37.5628L167 35.0628C165.7 34.4095 164.309 34.8586 161.5 36.0628M167.5 37.5628L161.5 40.563M161.5 36.0628L153.357 30.0628M161.5 36.0628V40.563M153.357 30.0628L156.831 132.063M126.5 31.5628V26.953M161.5 40.563L159.5 41.5628L160.5 63.5628L163.5 62.1511M163.5 62.1511L164 78.5628M156.831 132.063L157.955 165.063" stroke="black"/>
</svg>
