<svg width="214" height="187" viewBox="0 0 214 187" fill="none" xmlns="http://www.w3.org/2000/svg">
<path fill-rule="evenodd" clip-rule="evenodd" d="M15.5 35L1.49998 62.5C-0.459981 65.3158 -0.341429 66.8384 0.999975 69.5L17 76V151.5L99 185.5C101.24 186.559 102.874 186.54 105.5 185.5L195.5 151V76L212 69.5L212.052 69.4032C213.14 67.3769 213.946 65.8769 212 62.5L195.5 35L109 1.50002C107.357 0.706968 106.211 0.68567 104 1.50002L15.5 35ZM9.99998 63L21.5 44H24L95 73C95.6955 74.1266 95.6549 74.6669 95 75.5L86 92.5H83L9.99998 65C9.6008 64.4757 9.44672 64.0959 9.99998 63ZM25.5 146.5V80H28L84 102.5C87.0045 102.973 87.8569 102.588 89.5 102L96 89.5H98L97 175.5L25.5 146.5ZM108.5 175.5H105.5L105.999 86.6591L107 86L119 102.5C120.826 104.128 121.943 104.208 124 103.5L188 80V143L186.5 146.5L108.5 175.5ZM125.5 94.5C125.5 94.5 124 95.5 122.5 94C121 92.5 109.5 75.5 109.5 75.5C109.497 74.3003 109.622 73.6966 110.5 73L191.5 43.5L203 62C203.339 63.3156 203.167 63.9829 202 65L125.5 94.5ZM99.5 67C102.053 67.494 103.19 67.4147 105 67L178.5 40C178.704 38.4019 178.573 37.6085 177.5 36.5L110.5 10C107.661 9.67359 105.927 9.25086 104 10.5L33 37.5V39.5L99.5 67Z" fill="black"/>
</svg>
