<svg width="230" height="230" viewBox="0 0 230 230" fill="none" xmlns="http://www.w3.org/2000/svg">
<rect width="230" height="230" transform="matrix(1 0 0 -1 0 230)" fill="#FFCE06"/>
<path d="M120.5 49.5L101.5 61.5L134.5 69.5L154 57.5L120.5 49.5Z" fill="#B19005"/>
<path d="M81 106.5L97 109.5V143L88.5 134L81 139.5V106.5Z" fill="#B19005"/>
<path fill-rule="evenodd" clip-rule="evenodd" d="M113.5 25.5L211 48C218.154 50.3354 217.127 52.0872 212 55.5L126.5 103C124.127 104.818 124.369 105.013 119 103.5L22.4999 82.5C12.3086 91.9055 11.5731 97.5582 21.4999 108.5L74.4999 120.5C76.4308 123.243 76.4009 124.517 72.9999 126L22.9999 115.5C11.2139 125.228 11.6377 131.052 22.9999 142L123.5 164L212 113.5C216.28 113.876 216.895 115.037 215.5 118.5L123.5 170L22.9999 147.5C12.6536 156.416 11.3277 162.278 21.4999 174.5L123.5 196.5L212 146.5C215.356 146.819 216.565 147.484 215.5 151L123.5 202.5L21.4999 180.266C15.129 176.315 12.073 173.535 8.9999 166C8.79289 161.894 8.84228 159.594 9.4999 155.5C12.084 149.84 13.7669 147.495 16.9999 144.5C12.5471 140.777 10.7879 138.318 9.4999 133C8.61667 128.705 8.63861 126.295 9.4999 122C10.9878 117.774 12.69 115.761 16.4999 112.5C12.2188 108.305 10.3573 105.715 9.4999 100C8.34631 96.2654 8.56299 94.0453 9.4999 90C12.7893 82.1508 15.8029 79.4545 22.4999 76.5L113.5 25.5ZM101.5 61.5L120.5 49.5L154 57.5L134.5 69.5L101.5 61.5Z" fill="url(#paint0_linear_1589_12)"/>
<path d="M103.5 126C98.9638 127.704 99.1615 129.179 100.5 132L121.5 136C123.462 136.571 124.535 136.531 126.5 136L215.5 86C216.353 83.2297 215.37 82.2185 212 81L123.5 131L103.5 126Z" fill="url(#paint1_linear_1589_12)"/>
<path d="M120.5 49.5L101.5 61.5L134.5 69.5L154 57.5L120.5 49.5Z" stroke="black"/>
<path d="M81 106.5L97 109.5V143L88.5 134L81 139.5V106.5Z" stroke="black"/>
<path fill-rule="evenodd" clip-rule="evenodd" d="M113.5 25.5L211 48C218.154 50.3354 217.127 52.0872 212 55.5L126.5 103C124.127 104.818 124.369 105.013 119 103.5L22.4999 82.5C12.3086 91.9055 11.5731 97.5582 21.4999 108.5L74.4999 120.5C76.4308 123.243 76.4009 124.517 72.9999 126L22.9999 115.5C11.2139 125.228 11.6377 131.052 22.9999 142L123.5 164L212 113.5C216.28 113.876 216.895 115.037 215.5 118.5L123.5 170L22.9999 147.5C12.6536 156.416 11.3277 162.278 21.4999 174.5L123.5 196.5L212 146.5C215.356 146.819 216.565 147.484 215.5 151L123.5 202.5L21.4999 180.266C15.129 176.315 12.073 173.535 8.9999 166C8.79289 161.894 8.84228 159.594 9.4999 155.5C12.084 149.84 13.7669 147.495 16.9999 144.5C12.5471 140.777 10.7879 138.318 9.4999 133C8.61667 128.705 8.63861 126.295 9.4999 122C10.9878 117.774 12.69 115.761 16.4999 112.5C12.2188 108.305 10.3573 105.715 9.4999 100C8.34631 96.2654 8.56299 94.0453 9.4999 90C12.7893 82.1508 15.8029 79.4545 22.4999 76.5L113.5 25.5ZM101.5 61.5L120.5 49.5L154 57.5L134.5 69.5L101.5 61.5Z" stroke="black"/>
<path d="M103.5 126C98.9638 127.704 99.1615 129.179 100.5 132L121.5 136C123.462 136.571 124.535 136.531 126.5 136L215.5 86C216.353 83.2297 215.37 82.2185 212 81L123.5 131L103.5 126Z" stroke="black"/>
<defs>
<linearGradient id="paint0_linear_1589_12" x1="112.441" y1="202.5" x2="112.441" y2="25.5" gradientUnits="userSpaceOnUse">
<stop offset="1"/>
</linearGradient>
<linearGradient id="paint1_linear_1589_12" x1="112.441" y1="202.5" x2="112.441" y2="25.5" gradientUnits="userSpaceOnUse">
<stop offset="1"/>
</linearGradient>
</defs>
</svg>
