<svg width="994" height="1152" viewBox="0 0 994 1152" fill="none" xmlns="http://www.w3.org/2000/svg">
<rect width="994" height="1152" fill="black"/>
<rect x="0.598639" y="0.338636" width="506.403" height="309.545" rx="29.5" transform="matrix(0.956052 -0.293198 0.241226 0.970469 141.945 504.162)" fill="black" stroke="#B19005"/>
<rect x="-5.07316" y="-4.90816" width="494.7" height="303.056" rx="35" transform="matrix(0.999833 -0.0182585 0.0147997 0.99989 346.349 512.888)" fill="url(#paint0_linear_1471_2)" stroke="white" stroke-width="10"/>
<rect x="-3.0439" y="-2.9449" width="509.27" height="318.643" rx="33" transform="matrix(0.999833 -0.0182585 0.0147997 0.99989 337.546 503.336)" fill="url(#paint1_linear_1471_2)" stroke="#FFCE06" stroke-width="6"/>
<rect x="324.363" y="555.419" width="524.087" height="53.6126" transform="rotate(-0.779997 324.363 555.419)" fill="black"/>
<path d="M421.022 755.316C421.022 767.702 411.994 777.651 400.964 777.651C389.935 777.651 380.906 767.702 380.906 755.316C380.906 742.93 389.935 732.981 400.964 732.981C411.994 732.981 421.022 742.93 421.022 755.316Z" fill="#D82323" stroke="black"/>
<path d="M442.476 755.316C442.476 767.702 433.447 777.651 422.417 777.651C411.388 777.651 402.359 767.702 402.359 755.316C402.359 742.93 411.388 732.981 422.417 732.981C433.447 732.981 442.476 742.93 442.476 755.316Z" fill="#F5C805" stroke="black"/>
<path d="M521.971 764.858C520.549 764.858 519.235 764.624 518.029 764.156C516.823 763.67 515.779 762.995 514.897 762.131C514.015 761.267 513.322 760.25 512.818 759.08C512.332 757.91 512.089 756.632 512.089 755.246C512.089 753.86 512.332 752.582 512.818 751.412C513.322 750.242 514.015 749.225 514.897 748.361C515.797 747.497 516.85 746.831 518.056 746.363C519.262 745.877 520.576 745.634 521.998 745.634C523.366 745.634 524.653 745.868 525.859 746.336C527.065 746.786 528.082 747.47 528.91 748.388L527.641 749.657C526.867 748.865 526.012 748.298 525.076 747.956C524.14 747.596 523.132 747.416 522.052 747.416C520.918 747.416 519.865 747.614 518.893 748.01C517.921 748.388 517.075 748.937 516.355 749.657C515.635 750.359 515.068 751.187 514.654 752.141C514.258 753.077 514.06 754.112 514.06 755.246C514.06 756.38 514.258 757.424 514.654 758.378C515.068 759.314 515.635 760.142 516.355 760.862C517.075 761.564 517.921 762.113 518.893 762.509C519.865 762.887 520.918 763.076 522.052 763.076C523.132 763.076 524.14 762.896 525.076 762.536C526.012 762.176 526.867 761.6 527.641 760.808L528.91 762.077C528.082 762.995 527.065 763.688 525.859 764.156C524.653 764.624 523.357 764.858 521.971 764.858ZM541.035 764.858C539.613 764.858 538.29 764.624 537.066 764.156C535.86 763.67 534.807 762.995 533.907 762.131C533.025 761.249 532.332 760.232 531.828 759.08C531.342 757.91 531.099 756.632 531.099 755.246C531.099 753.86 531.342 752.591 531.828 751.439C532.332 750.269 533.025 749.252 533.907 748.388C534.807 747.506 535.86 746.831 537.066 746.363C538.272 745.877 539.595 745.634 541.035 745.634C542.457 745.634 543.771 745.877 544.977 746.363C546.183 746.831 547.227 747.497 548.109 748.361C549.009 749.225 549.702 750.242 550.188 751.412C550.692 752.582 550.944 753.86 550.944 755.246C550.944 756.632 550.692 757.91 550.188 759.08C549.702 760.25 549.009 761.267 548.109 762.131C547.227 762.995 546.183 763.67 544.977 764.156C543.771 764.624 542.457 764.858 541.035 764.858ZM541.035 763.076C542.169 763.076 543.213 762.887 544.167 762.509C545.139 762.113 545.976 761.564 546.678 760.862C547.398 760.142 547.956 759.314 548.352 758.378C548.748 757.424 548.946 756.38 548.946 755.246C548.946 754.112 548.748 753.077 548.352 752.141C547.956 751.187 547.398 750.359 546.678 749.657C545.976 748.937 545.139 748.388 544.167 748.01C543.213 747.614 542.169 747.416 541.035 747.416C539.901 747.416 538.848 747.614 537.876 748.01C536.904 748.388 536.058 748.937 535.338 749.657C534.636 750.359 534.078 751.187 533.664 752.141C533.268 753.077 533.07 754.112 533.07 755.246C533.07 756.362 533.268 757.397 533.664 758.351C534.078 759.305 534.636 760.142 535.338 760.862C536.058 761.564 536.904 762.113 537.876 762.509C538.848 762.887 539.901 763.076 541.035 763.076ZM560.634 764.858C559.23 764.858 557.88 764.633 556.584 764.183C555.306 763.715 554.316 763.121 553.614 762.401L554.397 760.862C555.063 761.51 555.954 762.059 557.07 762.509C558.204 762.941 559.392 763.157 560.634 763.157C561.822 763.157 562.785 763.013 563.523 762.725C564.279 762.419 564.828 762.014 565.17 761.51C565.53 761.006 565.71 760.448 565.71 759.836C565.71 759.098 565.494 758.504 565.062 758.054C564.648 757.604 564.099 757.253 563.415 757.001C562.731 756.731 561.975 756.497 561.147 756.299C560.319 756.101 559.491 755.894 558.663 755.678C557.835 755.444 557.07 755.138 556.368 754.76C555.684 754.382 555.126 753.887 554.694 753.275C554.28 752.645 554.073 751.826 554.073 750.818C554.073 749.882 554.316 749.027 554.802 748.253C555.306 747.461 556.071 746.831 557.097 746.363C558.123 745.877 559.437 745.634 561.039 745.634C562.101 745.634 563.154 745.787 564.198 746.093C565.242 746.381 566.142 746.786 566.898 747.308L566.223 748.901C565.413 748.361 564.549 747.965 563.631 747.713C562.731 747.461 561.858 747.335 561.012 747.335C559.878 747.335 558.942 747.488 558.204 747.794C557.466 748.1 556.917 748.514 556.557 749.036C556.215 749.54 556.044 750.116 556.044 750.764C556.044 751.502 556.251 752.096 556.665 752.546C557.097 752.996 557.655 753.347 558.339 753.599C559.041 753.851 559.806 754.076 560.634 754.274C561.462 754.472 562.281 754.688 563.091 754.922C563.919 755.156 564.675 755.462 565.359 755.84C566.061 756.2 566.619 756.686 567.033 757.298C567.465 757.91 567.681 758.711 567.681 759.701C567.681 760.619 567.429 761.474 566.925 762.266C566.421 763.04 565.647 763.67 564.603 764.156C563.577 764.624 562.254 764.858 560.634 764.858ZM572.034 764.696V745.796H573.681L582.321 760.538H581.457L590.016 745.796H591.663V764.696H589.746V748.793H590.205L582.321 762.293H581.376L573.438 748.793H573.951V764.696H572.034ZM599.603 754.247H609.593V755.948H599.603V754.247ZM599.819 762.968H611.186V764.696H597.821V745.796H610.781V747.524H599.819V762.968ZM624.731 754.949H634.721V756.677H624.731V754.949ZM624.947 764.696H622.949V745.796H635.909V747.524H624.947V764.696ZM647.649 764.858C645.237 764.858 643.338 764.165 641.952 762.779C640.566 761.393 639.873 759.341 639.873 756.623V745.796H641.871V756.542C641.871 758.774 642.375 760.421 643.383 761.483C644.391 762.545 645.813 763.076 647.649 763.076C649.503 763.076 650.934 762.545 651.942 761.483C652.95 760.421 653.454 758.774 653.454 756.542V745.796H655.398V756.623C655.398 759.341 654.705 761.393 653.319 762.779C651.951 764.165 650.061 764.858 647.649 764.858ZM661.419 764.696V745.796H663.417V762.968H674.001V764.696H661.419ZM674.294 764.696L682.934 745.796H684.905L693.545 764.696H691.439L683.501 746.957H684.311L676.373 764.696H674.294ZM677.696 759.647L678.29 758.027H689.279L689.873 759.647H677.696ZM696.672 764.696V745.796H698.319L711.36 762.212H710.496V745.796H712.467V764.696H710.82L697.806 748.28H698.67V764.696H696.672ZM718.636 764.696V745.796H720.634V764.696H718.636ZM730.455 764.696V747.524H723.813V745.796H739.095V747.524H732.453V764.696H730.455ZM750.285 764.858C748.863 764.858 747.54 764.624 746.316 764.156C745.11 763.67 744.057 762.995 743.157 762.131C742.275 761.249 741.582 760.232 741.078 759.08C740.592 757.91 740.349 756.632 740.349 755.246C740.349 753.86 740.592 752.591 741.078 751.439C741.582 750.269 742.275 749.252 743.157 748.388C744.057 747.506 745.11 746.831 746.316 746.363C747.522 745.877 748.845 745.634 750.285 745.634C751.707 745.634 753.021 745.877 754.227 746.363C755.433 746.831 756.477 747.497 757.359 748.361C758.259 749.225 758.952 750.242 759.438 751.412C759.942 752.582 760.194 753.86 760.194 755.246C760.194 756.632 759.942 757.91 759.438 759.08C758.952 760.25 758.259 761.267 757.359 762.131C756.477 762.995 755.433 763.67 754.227 764.156C753.021 764.624 751.707 764.858 750.285 764.858ZM750.285 763.076C751.419 763.076 752.463 762.887 753.417 762.509C754.389 762.113 755.226 761.564 755.928 760.862C756.648 760.142 757.206 759.314 757.602 758.378C757.998 757.424 758.196 756.38 758.196 755.246C758.196 754.112 757.998 753.077 757.602 752.141C757.206 751.187 756.648 750.359 755.928 749.657C755.226 748.937 754.389 748.388 753.417 748.01C752.463 747.614 751.419 747.416 750.285 747.416C749.151 747.416 748.098 747.614 747.126 748.01C746.154 748.388 745.308 748.937 744.588 749.657C743.886 750.359 743.328 751.187 742.914 752.141C742.518 753.077 742.32 754.112 742.32 755.246C742.32 756.362 742.518 757.397 742.914 758.351C743.328 759.305 743.886 760.142 744.588 760.862C745.308 761.564 746.154 762.113 747.126 762.509C748.098 762.887 749.151 763.076 750.285 763.076Z" fill="black"/>
<path d="M477.425 683.56V681.74L490.41 665.5H493.21L480.33 681.74L478.965 681.32H498.67V683.56H477.425ZM491.25 690V683.56L491.32 681.32V675.65H493.77V690H491.25ZM510.637 690.21C508.677 690.21 506.985 689.93 505.562 689.37C504.162 688.81 503.077 688.005 502.307 686.955C501.56 685.882 501.187 684.622 501.187 683.175C501.187 681.775 501.549 680.585 502.272 679.605C503.019 678.602 504.092 677.832 505.492 677.295C506.915 676.758 508.63 676.49 510.637 676.49C512.62 676.49 514.324 676.758 515.747 677.295C517.17 677.832 518.255 678.602 519.002 679.605C519.772 680.585 520.157 681.775 520.157 683.175C520.157 684.622 519.772 685.882 519.002 686.955C518.232 688.005 517.135 688.81 515.712 689.37C514.289 689.93 512.597 690.21 510.637 690.21ZM510.637 688.075C512.807 688.075 514.499 687.632 515.712 686.745C516.949 685.858 517.567 684.657 517.567 683.14C517.567 681.623 516.949 680.433 515.712 679.57C514.499 678.683 512.807 678.24 510.637 678.24C508.467 678.24 506.775 678.683 505.562 679.57C504.349 680.433 503.742 681.623 503.742 683.14C503.742 684.657 504.349 685.858 505.562 686.745C506.775 687.632 508.467 688.075 510.637 688.075ZM510.637 677.925C508.817 677.925 507.265 677.68 505.982 677.19C504.722 676.7 503.754 676 503.077 675.09C502.4 674.157 502.062 673.048 502.062 671.765C502.062 670.412 502.412 669.257 503.112 668.3C503.835 667.32 504.839 666.573 506.122 666.06C507.405 665.547 508.91 665.29 510.637 665.29C512.364 665.29 513.869 665.547 515.152 666.06C516.459 666.573 517.474 667.32 518.197 668.3C518.92 669.257 519.282 670.412 519.282 671.765C519.282 673.048 518.944 674.157 518.267 675.09C517.59 676 516.599 676.7 515.292 677.19C514.009 677.68 512.457 677.925 510.637 677.925ZM510.637 676.245C512.55 676.245 514.044 675.848 515.117 675.055C516.19 674.262 516.727 673.2 516.727 671.87C516.727 670.47 516.167 669.385 515.047 668.615C513.95 667.822 512.48 667.425 510.637 667.425C508.794 667.425 507.324 667.822 506.227 668.615C505.13 669.385 504.582 670.458 504.582 671.835C504.582 673.188 505.107 674.262 506.157 675.055C507.23 675.848 508.724 676.245 510.637 676.245ZM539.526 690V666.55L540.646 667.74H533.751V665.5H542.046V690H539.526ZM555.638 690.21C553.888 690.21 552.22 689.93 550.633 689.37C549.046 688.787 547.786 688.017 546.853 687.06L548.078 685.065C548.848 685.882 549.898 686.558 551.228 687.095C552.581 687.632 554.04 687.9 555.603 687.9C557.68 687.9 559.255 687.445 560.328 686.535C561.425 685.602 561.973 684.388 561.973 682.895C561.973 681.845 561.716 680.947 561.203 680.2C560.713 679.43 559.873 678.835 558.683 678.415C557.493 677.995 555.86 677.785 553.783 677.785H548.568L549.828 665.5H563.233V667.74H550.843L552.138 666.515L551.053 676.805L549.758 675.545H554.343C556.816 675.545 558.8 675.848 560.293 676.455C561.786 677.062 562.86 677.913 563.513 679.01C564.19 680.083 564.528 681.343 564.528 682.79C564.528 684.167 564.201 685.427 563.548 686.57C562.895 687.69 561.915 688.577 560.608 689.23C559.301 689.883 557.645 690.21 555.638 690.21ZM581.157 690V666.55L582.277 667.74H575.382V665.5H583.677V690H581.157ZM599.579 690.21C597.409 690.21 595.577 689.732 594.084 688.775C592.59 687.795 591.459 686.395 590.689 684.575C589.919 682.732 589.534 680.527 589.534 677.96C589.534 675.183 590 672.862 590.934 670.995C591.89 669.105 593.209 667.682 594.889 666.725C596.569 665.768 598.517 665.29 600.734 665.29C601.83 665.29 602.88 665.395 603.884 665.605C604.887 665.815 605.774 666.153 606.544 666.62L605.529 668.65C604.899 668.23 604.175 667.938 603.359 667.775C602.542 667.588 601.679 667.495 600.769 667.495C598.132 667.495 596.02 668.335 594.434 670.015C592.87 671.695 592.089 674.203 592.089 677.54C592.089 678.053 592.112 678.695 592.159 679.465C592.229 680.212 592.369 680.958 592.579 681.705L591.704 681.04C591.96 679.827 592.462 678.8 593.209 677.96C593.955 677.097 594.889 676.443 596.009 676C597.129 675.557 598.354 675.335 599.684 675.335C601.317 675.335 602.752 675.638 603.989 676.245C605.225 676.852 606.194 677.703 606.894 678.8C607.594 679.897 607.944 681.192 607.944 682.685C607.944 684.202 607.582 685.532 606.859 686.675C606.135 687.795 605.132 688.67 603.849 689.3C602.589 689.907 601.165 690.21 599.579 690.21ZM599.474 688.075C600.64 688.075 601.667 687.865 602.554 687.445C603.464 687.002 604.175 686.383 604.689 685.59C605.202 684.773 605.459 683.828 605.459 682.755C605.459 681.145 604.899 679.862 603.779 678.905C602.682 677.948 601.189 677.47 599.299 677.47C598.039 677.47 596.942 677.703 596.009 678.17C595.075 678.637 594.34 679.278 593.804 680.095C593.267 680.888 592.999 681.798 592.999 682.825C592.999 683.712 593.244 684.563 593.734 685.38C594.224 686.173 594.947 686.827 595.904 687.34C596.884 687.83 598.074 688.075 599.474 688.075ZM619.567 690V688.215L629.752 678.24C630.685 677.33 631.385 676.537 631.852 675.86C632.319 675.16 632.634 674.507 632.797 673.9C632.96 673.293 633.042 672.722 633.042 672.185C633.042 670.762 632.552 669.642 631.572 668.825C630.615 668.008 629.192 667.6 627.302 667.6C625.855 667.6 624.572 667.822 623.452 668.265C622.355 668.708 621.41 669.397 620.617 670.33L618.832 668.79C619.789 667.67 621.014 666.807 622.507 666.2C624 665.593 625.669 665.29 627.512 665.29C629.169 665.29 630.604 665.558 631.817 666.095C633.03 666.608 633.964 667.367 634.617 668.37C635.294 669.373 635.632 670.552 635.632 671.905C635.632 672.698 635.515 673.48 635.282 674.25C635.072 675.02 634.675 675.837 634.092 676.7C633.532 677.54 632.704 678.497 631.607 679.57L622.262 688.74L621.562 687.76H636.752V690H619.567ZM647.23 690.21C645.456 690.21 643.776 689.93 642.19 689.37C640.626 688.787 639.366 688.017 638.41 687.06L639.635 685.065C640.428 685.882 641.49 686.558 642.82 687.095C644.173 687.632 645.643 687.9 647.23 687.9C649.26 687.9 650.811 687.457 651.885 686.57C652.981 685.683 653.53 684.493 653.53 683C653.53 681.507 652.993 680.317 651.92 679.43C650.87 678.543 649.201 678.1 646.915 678.1H645.165V676.245L652.725 666.76L653.075 667.74H639.425V665.5H655.175V667.285L647.615 676.77L646.39 675.965H647.335C650.275 675.965 652.468 676.618 653.915 677.925C655.385 679.232 656.12 680.912 656.12 682.965C656.12 684.342 655.793 685.578 655.14 686.675C654.486 687.772 653.495 688.635 652.165 689.265C650.858 689.895 649.213 690.21 647.23 690.21ZM668.411 683.56V681.74L681.396 665.5H684.196L671.316 681.74L669.951 681.32H689.656V683.56H668.411ZM682.236 690V683.56L682.306 681.32V675.65H684.756V690H682.236ZM691.447 690V688.215L701.632 678.24C702.565 677.33 703.265 676.537 703.732 675.86C704.199 675.16 704.514 674.507 704.677 673.9C704.84 673.293 704.922 672.722 704.922 672.185C704.922 670.762 704.432 669.642 703.452 668.825C702.495 668.008 701.072 667.6 699.182 667.6C697.735 667.6 696.452 667.822 695.332 668.265C694.235 668.708 693.29 669.397 692.497 670.33L690.712 668.79C691.669 667.67 692.894 666.807 694.387 666.2C695.88 665.593 697.549 665.29 699.392 665.29C701.049 665.29 702.484 665.558 703.697 666.095C704.91 666.608 705.844 667.367 706.497 668.37C707.174 669.373 707.512 670.552 707.512 671.905C707.512 672.698 707.395 673.48 707.162 674.25C706.952 675.02 706.555 675.837 705.972 676.7C705.412 677.54 704.584 678.497 703.487 679.57L694.142 688.74L693.442 687.76H708.632V690H691.447Z" fill="black"/>
<defs>
<linearGradient id="paint0_linear_1471_2" x1="242.35" y1="0" x2="242.35" y2="293.056" gradientUnits="userSpaceOnUse">
<stop offset="0.57002" stop-color="#FFCE06"/>
<stop offset="1" stop-color="#997C04"/>
</linearGradient>
<linearGradient id="paint1_linear_1471_2" x1="251.635" y1="0" x2="251.635" y2="312.643" gradientUnits="userSpaceOnUse">
<stop offset="0.705" stop-color="#FFCE06"/>
<stop offset="1" stop-color="#997C04"/>
</linearGradient>
</defs>
</svg>
