<svg width="223" height="216" viewBox="0 0 223 216" fill="none" xmlns="http://www.w3.org/2000/svg">
<rect width="223" height="216" fill="white"/>
<path d="M111.846 63C112.358 59.9322 113.546 58.9055 116.684 58.1538H126.361V38.0769C125.216 31.3042 123.271 28.9043 116.684 27H42.7228V47.7692C40.023 55.7917 37.494 57.7734 31.6632 58.1538H13V163.385C14.8492 170.378 16.8165 172.883 22.6772 173.769H108.389V163.385H84.8877C80.5365 161.016 79.0702 158.818 78.6667 153V111.462C80.381 106.134 82.2753 104.212 88.3439 103.846H100.786V86.5385C101.041 84.3984 101.672 83.537 104.242 83.0769H111.846V63Z" fill="#D9D9D9"/>
<path d="M38.5754 27L13 53.3077V58.1538H31.6632C37.494 57.7734 40.023 55.7917 42.7228 47.7692V27H38.5754Z" fill="#D9D9D9"/>
<path d="M116.684 58.1538C113.546 58.9055 112.358 59.9322 111.846 63V83.0769V103.846H178.204V83.0769V63C177.63 59.4981 176.552 58.4611 173.365 58.1538H126.361H116.684Z" fill="#D9D9D9"/>
<path d="M180.277 180V163.385V148.846H108.389V163.385V173.769V184.154C110.067 187.273 111.197 188.555 113.919 189H175.439C179.335 187.187 180.189 185.049 180.277 180Z" fill="#D9D9D9"/>
<path d="M102.168 148.846H108.389H180.277H187.189C188.782 147.783 189.191 146.842 189.263 144.692V137.769C189.366 134.984 188.577 134.031 184.425 134.308H102.168C100.127 134.459 99.5688 135.176 99.4035 137.769V144.692C99.9055 147.525 100.549 148.36 102.168 148.846Z" fill="#B19005"/>
<path d="M178.204 83.0769V63C177.63 59.4981 176.552 58.4611 173.365 58.1538H126.361M178.204 83.0769H184.425C186.643 83.026 187.776 83.6558 189.263 87.9231V103.846M178.204 83.0769V103.846M189.263 103.846H203.088C206.597 105.044 208.289 106.737 210 111.462V155.077C209.047 159.818 207.72 161.768 203.088 163.385H180.277M189.263 103.846H178.204M180.277 163.385V180C180.189 185.049 179.335 187.187 175.439 189H113.919C111.197 188.555 110.067 187.273 108.389 184.154V173.769M180.277 163.385V148.846M108.389 148.846H102.168C100.549 148.36 99.9055 147.525 99.4035 144.692V137.769C99.5688 135.176 100.127 134.459 102.168 134.308H184.425C188.577 134.031 189.366 134.984 189.263 137.769V144.692C189.191 146.842 188.782 147.783 187.189 148.846H180.277M108.389 148.846H180.277M108.389 148.846V163.385M111.846 83.0769V63C112.358 59.9322 113.546 58.9055 116.684 58.1538H126.361M111.846 83.0769H104.242C101.672 83.537 101.041 84.3984 100.786 86.5385V103.846M111.846 83.0769V103.846M100.786 103.846H88.3439C82.2753 104.212 80.381 106.134 78.6667 111.462V153C79.0702 158.818 80.5365 161.016 84.8877 163.385H108.389M100.786 103.846H111.846M108.389 163.385V173.769M123.596 159.231H166.453M166.453 173.077H123.596M111.846 103.846H178.204M108.389 173.769H22.6772C16.8165 172.883 14.8492 170.378 13 163.385V58.1538M126.361 58.1538V38.0769C125.216 31.3042 123.271 28.9043 116.684 27H42.7228M13 58.1538V53.3077L38.5754 27H42.7228M13 58.1538H31.6632C37.494 57.7734 40.023 55.7917 42.7228 47.7692V27M57.2386 58.1538H104.242M104.242 71.3077H31.6632M31.6632 86.5385H73.8281H94.5649M73.8281 101.077H31.6632" stroke="black" stroke-width="3"/>
</svg>
