<svg width="230" height="230" viewBox="0 0 230 230" fill="none" xmlns="http://www.w3.org/2000/svg">
<rect width="230" height="230" transform="matrix(1 0 0 -1 0 230)" fill="#FFCE06"/>
<path d="M84.4038 77H60.5577C57.277 75.4382 55.6214 74.2888 54 70.2941V25.5882C55.5093 22.0465 56.9324 20.7807 60.5577 20H109.442C112.71 20.6366 114.056 22.063 116 25.5882V70.2941C114.682 74.4112 113.771 76.5059 109.442 77H105.865" stroke="black" stroke-width="5"/>
<path d="M75 39.1515L85.5882 57L102 26" stroke="black" stroke-width="5"/>
<path d="M101.453 197.93L95.7407 198.881C95.7865 210.272 96.7139 215.574 99.1679 224L162 214.295C161.43 204.402 160.52 198.787 157.43 188.605L153.432 189.271M101.453 197.93C101.006 191.32 99.6026 188.228 95.7407 183.467L54.0431 136.084C53.6753 132.641 55.6043 131.041 62.0399 128.663C65.1602 128.325 66.918 128.377 70.0367 128.663L90.0287 141.222C90.94 117.846 89.7336 105.769 87.7439 84.1337C86.809 73.7746 86.7391 69.4586 87.7439 65.8654C92.2711 62.4802 95.3629 62.3471 101.453 64.1528C103.249 66.4728 104.149 68.7321 105.451 74.9995L108.307 96.4077M101.453 197.93L153.432 189.271M111.164 117.816L108.307 96.4077M153.432 189.271C152.15 184.968 152.012 182.577 152.29 178.329L159.715 158.348C160.682 147.41 160.919 141.355 159.715 130.946C158.835 117.963 157.803 111.012 154.574 99.5475C148.148 94.9194 135.154 93.2678 140.866 117.816L138.01 99.5475C132.154 93.8475 128.865 94.6289 123.006 99.5475M108.307 96.4077C113.947 90.2334 116.948 90.1962 122.588 96.4077L123.006 99.5475M125.444 117.816L123.006 99.5475" stroke="black" stroke-width="5"/>
</svg>
