<svg width="136" height="164" viewBox="0 0 136 164" fill="none" xmlns="http://www.w3.org/2000/svg">
<rect x="33.8828" y="0.5" width="101.617" height="136.55" rx="9.5" fill="url(#paint0_linear_1184_122)" stroke="#535353"/>
<rect x="4.5" y="26.5" width="101.617" height="136.55" rx="9.5" fill="url(#paint1_linear_1184_122)" stroke="#535353"/>
<path d="M2 36.4609C1.17157 36.4609 0.5 37.1325 0.5 37.9609C0.5 38.7894 1.17157 39.4609 2 39.4609V36.4609ZM2 39.4609H12V36.4609H2V39.4609Z" fill="black"/>
<ellipse cx="12" cy="37.961" rx="2" ry="3.96104" fill="black"/>
<path d="M2 49.1362C1.17157 49.1362 0.5 49.8078 0.5 50.6362C0.5 51.4647 1.17157 52.1362 2 52.1362V49.1362ZM2 52.1362H12V49.1362H2V52.1362Z" fill="black"/>
<ellipse cx="12" cy="50.6363" rx="2" ry="3.96104" fill="black"/>
<path d="M2 61.8115C1.17157 61.8115 0.5 62.4831 0.5 63.3115C0.5 64.14 1.17157 64.8115 2 64.8115V61.8115ZM2 64.8115H12V61.8115H2V64.8115Z" fill="black"/>
<ellipse cx="12" cy="63.3116" rx="2" ry="3.96104" fill="black"/>
<path d="M2 74.4868C1.17157 74.4868 0.5 75.1584 0.5 75.9868C0.5 76.8152 1.17157 77.4868 2 77.4868V74.4868ZM2 77.4868H12V74.4868H2V77.4868Z" fill="black"/>
<ellipse cx="12" cy="75.9869" rx="2" ry="3.96104" fill="black"/>
<path d="M2 87.1621C1.17157 87.1621 0.5 87.8337 0.5 88.6621C0.5 89.4905 1.17157 90.1621 2 90.1621V87.1621ZM2 90.1621H12V87.1621H2V90.1621Z" fill="black"/>
<ellipse cx="12" cy="88.6622" rx="2" ry="3.96104" fill="black"/>
<path d="M2 99.8379C1.17157 99.8379 0.5 100.509 0.5 101.338C0.5 102.166 1.17157 102.838 2 102.838V99.8379ZM2 102.838H12V99.8379H2V102.838Z" fill="black"/>
<ellipse cx="12" cy="101.338" rx="2" ry="3.96104" fill="black"/>
<path d="M2 112.513C1.17157 112.513 0.5 113.185 0.5 114.013C0.5 114.842 1.17157 115.513 2 115.513V112.513ZM2 115.513H12V112.513H2V115.513Z" fill="black"/>
<ellipse cx="12" cy="114.013" rx="2" ry="3.96104" fill="black"/>
<path d="M2 125.188C1.17157 125.188 0.5 125.86 0.5 126.688C0.5 127.517 1.17157 128.188 2 128.188V125.188ZM2 128.188H12V125.188H2V128.188Z" fill="black"/>
<ellipse cx="12" cy="126.688" rx="2" ry="3.96104" fill="black"/>
<path d="M2 137.864C1.17157 137.864 0.5 138.535 0.5 139.364C0.5 140.192 1.17157 140.864 2 140.864V137.864ZM2 140.864H12V137.864H2V140.864Z" fill="black"/>
<ellipse cx="12" cy="139.364" rx="2" ry="3.96104" fill="black"/>
<path d="M2 150.539C1.17157 150.539 0.5 151.211 0.5 152.039C0.5 152.867 1.17157 153.539 2 153.539V150.539ZM2 153.539H12V150.539H2V153.539Z" fill="black"/>
<ellipse cx="12" cy="152.039" rx="2" ry="3.96104" fill="black"/>
<path d="M30 6.4873C29.1716 6.4873 28.5 7.15888 28.5 7.9873C28.5 8.81573 29.1716 9.4873 30 9.4873V6.4873ZM30 9.4873H40V6.4873H30V9.4873Z" fill="black"/>
<ellipse cx="40" cy="7.98701" rx="2" ry="2.98701" fill="black"/>
<path d="M30 16.0454C29.1716 16.0454 28.5 16.717 28.5 17.5454C28.5 18.3738 29.1716 19.0454 30 19.0454V16.0454ZM30 19.0454H40V16.0454H30V19.0454Z" fill="black"/>
<ellipse cx="40" cy="17.5456" rx="2" ry="2.98701" fill="black"/>
<path d="M30 25.6035C29.1716 25.6035 28.5 26.2751 28.5 27.1035C28.5 27.9319 29.1716 28.6035 30 28.6035V25.6035ZM30 28.6035H40V25.6035H30V28.6035Z" fill="black"/>
<ellipse cx="40" cy="27.1042" rx="2" ry="2.98701" fill="black"/>
<rect x="28" y="27" width="16" height="4" fill="#FEFDFA"/>
<rect x="28" y="26" width="16" height="1" fill="#535353"/>
<line x1="26.833" y1="54.083" x2="83.5996" y2="54.083" stroke="black"/>
<line x1="35.5664" y1="62.8164" x2="74.8664" y2="62.8164" stroke="black"/>
<line x1="39.9326" y1="71.5498" x2="70.4993" y2="71.5498" stroke="black"/>
<defs>
<linearGradient id="paint0_linear_1184_122" x1="84.6911" y1="0" x2="84.6911" y2="137.55" gradientUnits="userSpaceOnUse">
<stop stop-color="#FFCE06"/>
<stop offset="1" stop-color="#997C04" stop-opacity="0.35"/>
</linearGradient>
<linearGradient id="paint1_linear_1184_122" x1="55.3083" y1="26" x2="55.3083" y2="163.55" gradientUnits="userSpaceOnUse">
<stop stop-color="#FFFEFC" stop-opacity="0.96"/>
<stop offset="0.595" stop-color="#F0ECDD" stop-opacity="0.99"/>
</linearGradient>
</defs>
</svg>
